<?xml version="1.0" encoding="utf-8"?>
<!-- Generator: Adobe Illustrator 16.0.0, SVG Export Plug-In . SVG Version: 6.00 Build 0)  -->
<!DOCTYPE svg PUBLIC "-//W3C//DTD SVG 1.1//EN" "http://www.w3.org/Graphics/SVG/1.1/DTD/svg11.dtd">
<svg version="1.1" id="Calque_1" xmlns="http://www.w3.org/2000/svg" xmlns:xlink="http://www.w3.org/1999/xlink" x="0px" y="0px"
	 width="60px" height="60px" viewBox="0 0 60 60" enable-background="new 0 0 60 60" xml:space="preserve">
<g>
	<path fill="#FFFFFF" d="M38.174,28.998l8.269-5.056l-0.415-0.789l-8.753,3.928C37.649,27.675,37.956,28.315,38.174,28.998z"/>
	<circle fill="#FFFFFF" cx="47.084" cy="23.057" r="5.152"/>
	<g opacity="0.7">
		<path fill="#FFFFFF" d="M23.117,27.081l-8.75-3.928l-0.417,0.789l8.27,5.056C22.436,28.316,22.743,27.676,23.117,27.081z"/>
		<circle fill="#FFFFFF" cx="13.31" cy="23.057" r="5.153"/>
		<path fill="#FFFFFF" d="M30.196,39.904c-0.415,0-0.819-0.037-1.218-0.097l0.714,8.76H30.7l0.714-8.76
			C31.016,39.867,30.611,39.904,30.196,39.904z"/>
		<circle fill="#FFFFFF" cx="30.196" cy="52.057" r="5.557"/>
		<circle fill="#FFFFFF" cx="30.197" cy="31.534" r="6.515"/>
		<circle fill="#FFFFFF" cx="30.196" cy="11.285" r="8.158"/>
	</g>
</g>
</svg>
