<?xml version="1.0" encoding="utf-8"?>
<!-- Generator: Adobe Illustrator 16.0.0, SVG Export Plug-In . SVG Version: 6.00 Build 0)  -->
<!DOCTYPE svg PUBLIC "-//W3C//DTD SVG 1.1//EN" "http://www.w3.org/Graphics/SVG/1.1/DTD/svg11.dtd">
<svg version="1.1" xmlns="http://www.w3.org/2000/svg" xmlns:xlink="http://www.w3.org/1999/xlink" x="0px" y="0px"
	 width="572.971px" height="451.478px" viewBox="0 0 572.971 451.478" enable-background="new 0 0 572.971 451.478"
	 xml:space="preserve">
<g id="_x31_">
	<rect x="-123.852" y="-174.868" opacity="0.8" fill="#129AA2" width="820.458" height="823.458"/>
</g>
<g id="_x32_">
	<g>
		<path fill="#E6E7E8" d="M289.953,55.395c-88.825,0-160.833,71.942-160.833,160.688s72.008,160.688,160.833,160.688
			c0.195,0,0.389-0.007,0.584-0.008V55.402C290.341,55.401,290.148,55.395,289.953,55.395z"/>
		<path fill="#FFFFFF" d="M450.787,216.083c0-88.55-71.693-160.365-160.25-160.681v321.361
			C379.093,376.448,450.787,304.633,450.787,216.083z"/>
		<path fill="#004346" d="M440.252,157.805l-8.393,0.141l-4.211-4.617l-0.807-7.423l-4.306,2.352l-2.317,9.076L414,150.711
			l-0.253-6.257l-6.009-5.171l-2.22-2.204h-6.973l2.208,6.208l8.386,4.676l1.456,1.545l-1.812,0.908l0.068,4.918l-4.079,1.706
			l-3.494-0.766l-2.173-3.09l5.667,0.304l1.53-2.063l-12.569-8.479l-0.956-3.612l-5.105,4.617l-5.182-1.063l-7.881,10.243
			l-1.545,4.011l-5.037,0.458l-7.456,0.047l-4.456-2.084l-1.313-8.854l1.6-4.221l7.586-1.661l8.277,1.661l1.005-4.579l-3.514-0.83
			l1.203-7.128l8.325-1.303l5.822-8.226l6.015-1.008l5.428,0.803h1.995l-1.094-7.724l-6.602,2.663l-2.317-5.772l-3.827-0.534
			l-0.718-3.958l3.13-3.4l7.423-2.911l1.914-3.414c-28.294-24.927-65.36-40.125-105.919-40.215v28.996l3.068,1.359v5.752
			l4.825,1.202l-2.412,4.549h-5.481v20.973l3.328,2.029l-0.26,5.629l-3.068,1.045v3.916l4.675,2.13l-0.137,3.875l-2.058,0.174
			c-0.007-0.065-0.014-0.105-0.014-0.105l-2.467-0.76v107.919l4.012,1.527l14.175,0.137l4.156,6.812l6.281,2.013l-1.21,5.625
			l-6.89,8.756l-2.009,19.369l-6.213,4.918l-9.234-0.276l-3.068,5.33v0.048l2.276,10.01l-2.276,2.911v66.089
			c50.178-0.112,95.021-23.311,124.488-59.5h-5.311v-10.702l-6.138-8.274v-12.869l-4.695-4.672l-0.403-5.355l5.954-11.373
			l-11.299-19.934l1.341-13.52l-10.171-1.059l-3.739-3.746h-6.828l-3.472,3.209h-12.043l-0.403,1.069h-6.69l-15.379-17.518
			l0.123-13.648l2.542-0.934l0.943-5.221h-3.608l-1.477-5.482l17.799-12.839v-9.097l8.706-4.837l3.521,0.353h7.17l5.604-3.01
			l18.064-1.408v9.233l14.251,3.613l2.809,2.006h2.61v-5.023l8.223-0.8l7.833,5.823h12.836l0.901-0.824
			C443.328,166.233,441.873,161.982,440.252,157.805z M364.236,111.988l1.477-2.269l5.283-1.07l1.333,6.425l2.815,4.545l1.866,2.146
			l3.411,1.329l-3.205,3.821l-6.221,0.598h-4.682l0.526-5.55l3.89-0.807l-0.329-2.607l-3.623-2.276l-2.542-1.736V111.988z
			 M355.542,122.028l3.22-5.15l4.333-1.005l3.09,1.34l-0.28,3.475l-6.616,4.682h-3.746V122.028z"/>
		<polygon fill="#004346" points="290.529,297.86 290.537,297.895 290.537,297.847 		"/>
		<path fill="#00383B" d="M282.772,320.747l-3.206,5.888l-9.569,4.6l-6.294,0.954l-0.26,2.67l4.415,1.268L267.325,339l-3.957,3.81
			l2.406,3.021l4.757,0.134l-0.267,3.677L269,353.253l-0.409,2.939l7.039,5.93l-0.937,3.079l-9.575-0.182l-9.535-8.321l-7.43-13.051
			l1.04-12.6l-5.619-7.495l2.276-12.702l-3.343-0.939v-27.555c0,0-9.363-7.099-9.896-7.099c-0.534,0-4.948-1.199-4.948-1.199
			l-0.943-5.216l-12.166-15.251l1.203-5.484l0.396-8.965l8.42-5.885l-1.202-10.036l-12.303-0.926l-9.63-10.977l-6.821-1.866
			l-4.408-0.809l0.526-4.012l-5.618-0.8v2.272l-14.046-3.475l-5.652-8.65l2.304-4.192l-8.9-12.98l-1.53-9.497h-3.609l1.202,9.227
			l6.151,9.497l-0.669,3.753l-5.215-0.804l-6.417-10.942v-12.734l-6.685-3.216v-9.162c-8.27,19.36-12.856,40.653-12.856,63
			c0,88.764,72.217,160.98,160.98,160.98c0.121,0,0.241-0.005,0.362-0.005v-66.089L282.772,320.747z"/>
		<path fill="#00383B" d="M284.056,133.72l-0.375-2.867h-0.014l2.61-1.798v-2.614l-2.81-0.704l-0.696,2.413l-4.928,0.762
			l-0.492-0.164v0.247l-1.709,0.259l-1.395-2.813l-1.613-0.704h-3.513l-1.599,1.306v2.909l3.007,1.001l2.965,0.417l-0.663,0.291
			l-2.707,3l-1.196-1.5l-2.611-0.69l-7.128,6.708l0.93,0.766l-10.526,5.826l-9.903,10.3l-0.67,4.586l-9.93,6.52l-4.915,4.949
			l0.54,9.896l-6.828-3.178l0.055-5.789l-18.987,0.007l-9.828,4.979l-4.279,7.87l-1.688,6.244l2.769,6.052l7.744,0.943l12.31-8.233
			l1.079,4.081l-3.758,7.098l9.377,1.599l0.93,14.473l12.849,2.181l8.154-9.432l9.903,2.013l3.479,4.838l9.494-0.56l0.267-2.809
			l5.215,2.542l5.891,9.224l10.157,0.141l3.752,6.558l0.533,8.021l7.231,2.754V135.717L284.056,133.72z M268.083,141.825
			l-3.349,0.281l0.178-2.327l1.504-1.87l2.009,1.579L268.083,141.825z M279.84,137.711l-2.291,0.198l-0.465,2.214l-1.763,1.097
			l-2.823,0.236c-0.095-0.663-0.164-1.169-0.164-1.169h-1.094v-2.378h4.608l0.957-2.457l1.831-0.037l2.098,0.434L279.84,137.711z"/>
		<path fill="#00383B" d="M290.174,54.949c-35.322,0-68,11.465-94.58,30.828l8.119-0.064l3.616,2.002l6.814,1.47l0.533,2.679
			l10.84,0.4l-1.469-3.475l-9.63-0.27l2.269-2.136l-0.793-2.546h-8.708l9.5-7.09h9.098l4.278,5.891l7.102,0.4l4.271-4.152
			l3.219,1.606l-5.892,5.755c0,0-8.161,0.137-7.757,0.137c0.403,0,0.676,5.615,0.676,5.615l9.883-0.273l1.081-2.669l6.814-0.403
			l0.807-4.009l-4.013-0.676l1.34-3.609l3.075-0.933l10.704,0.529l-5.906,5.355l0.957,4.142l6.152,0.94l-0.404-7.491l5.885-3.079
			l10.443-1.203l12.037,5.332V54.953C290.416,54.953,290.295,54.949,290.174,54.949z"/>
		<polygon fill="#00383B" points="289.197,96.812 287.18,102.026 271.583,98.346 283.838,91.819 279.163,87.848 268.59,89.184 
			267.667,90.141 267.633,90.124 267.461,90.353 264.42,93.514 259.396,93.938 259.8,96.446 261.55,97.17 261.481,97.998 
			257.395,98.582 257.094,100.957 253.177,101.162 252.474,96.446 245.447,98.582 231.102,106.982 232.714,112.894 236.726,115.508 
			244.75,116.615 244.75,125.736 248.454,125.138 251.872,118.014 260.402,115.31 260.402,104.371 265.145,100.79 276.621,103.496 
			275.814,110.724 278.897,110.724 287.324,106.579 287.727,116.072 290.537,117.785 290.537,96.812 		"/>
		<polygon fill="#004346" points="287.727,127.445 288.124,129.304 290.537,130.404 290.537,126.488 		"/>
	</g>
</g>
<g id="_x33_">
</g>
<g id="_x34_">
</g>
</svg>
