<?xml version="1.0" encoding="utf-8"?>
<!-- Generator: Adobe Illustrator 16.0.0, SVG Export Plug-In . SVG Version: 6.00 Build 0)  -->
<!DOCTYPE svg PUBLIC "-//W3C//DTD SVG 1.1//EN" "http://www.w3.org/Graphics/SVG/1.1/DTD/svg11.dtd">
<svg version="1.1" id="Capa_1" xmlns="http://www.w3.org/2000/svg" xmlns:xlink="http://www.w3.org/1999/xlink" x="0px" y="0px"
	 width="692.965px" height="496.475px" viewBox="0 0 692.965 496.475" enable-background="new 0 0 692.965 496.475"
	 xml:space="preserve">
<g id="Layer_3">
</g>
<g id="Layer_9">
</g>
<ellipse fill="#A7B9C1" cx="569.394" cy="447.106" rx="83.205" ry="6.258"/>
<ellipse fill="#A7B9C1" cx="182.124" cy="447.106" rx="83.205" ry="6.258"/>
<path fill="#4C5564" d="M113.048,374.989c0,38.15,30.927,69.076,69.076,69.076c38.147,0,69.074-30.926,69.074-69.076
	c0-38.146-30.927-69.073-69.074-69.073C143.975,305.916,113.048,336.842,113.048,374.989z"/>
<circle fill="#4C5564" cx="182.125" cy="374.991" r="44.217"/>
<circle fill="#FFFFFF" cx="182.124" cy="374.991" r="40.354"/>
<circle fill="#FCCF72" cx="182.123" cy="374.991" r="32.649"/>
<circle fill="#4C5564" cx="182.124" cy="374.991" r="5.271"/>
<path fill="#4C5564" d="M495.046,374.989c0,38.15,30.927,69.076,69.076,69.076c38.147,0,69.075-30.926,69.075-69.076
	c0-38.146-30.928-69.073-69.075-69.073C525.973,305.916,495.046,336.842,495.046,374.989z"/>
<path fill="#0F9696" d="M633.198,302.923c0,0-25.74-45.422-94.076-36.177c0,0-29.344,10.415-32.961,17.468
	c0,0-19.295,52.476-38.991,68.554v10.854h27.877c0,0,19.433-54.28,98.683-51.058c0,0,20.562-2.843,32.219,1.999
	C625.948,314.563,636.829,312.572,633.198,302.923z"/>
<path fill="#4C5564" d="M446.669,147.362c0,0-0.805-10.452-2.412-10.452c0,0-2.813-2.813-2.01-6.029h-30.826
	c0,0-10.374-6.03-0.728-14.873h27.936c0,0-4.422-5.627,12.461-9.245c0,0,7.236,0.804,10.05-7.235c0,0,18.893-1.206,21.304,0
	c0,0,6.834,4.02,1.608,39.795c0,0-9.647,0.402-12.863-0.402C471.189,138.92,446.244,143.542,446.669,147.362z"/>
<circle fill="#5EC2AA" cx="410.694" cy="123.444" r="7.436"/>
<rect x="447.3" y="51.536" transform="matrix(0.9202 -0.3915 0.3915 0.9202 5.1671 181.9101)" fill="#A7B9C1" width="2.728" height="53.496"/>
<rect x="430.975" y="46.898" transform="matrix(0.0949 -0.9955 0.9955 0.0949 337.7202 479.1138)" fill="#A7B9C1" width="2.727" height="13.874"/>
<rect x="410.694" y="27.977" fill="#4C5564" width="4.22" height="53.06"/>
<rect x="424.159" y="49.281" fill="#A7B9C1" width="2.557" height="11.657"/>
<g>
	<path fill="#A7B9C1" d="M424.159,54.36c0,12.166-3.767,22.51-9.043,26.515V27.846C420.392,31.852,424.159,42.195,424.159,54.36z"/>
</g>
<path fill="#4C5564" d="M331.037,340.558c0,3.822,3.1,6.922,6.922,6.922h80.424c3.821,0,6.921-3.1,6.921-6.922l0,0
	c0-3.823-3.1-6.922-6.921-6.922h-80.424C334.136,333.636,331.037,336.735,331.037,340.558L331.037,340.558z"/>
<path fill="#A7B9C1" d="M104.219,215.483c2.103,0,18.448,30.505,18.448,30.505l17.33-10.438l-18.536-20.067H104.219z"/>
<path fill="#A7B9C1" d="M167.076,204.051c1.796,1.091-0.067,35.649-0.067,35.649l20.23,0.075l-5.427-26.773L167.076,204.051z"/>
<rect x="78.063" y="230.507" fill="#4C5564" width="13.667" height="36.641"/>
<path fill="#A7B9C1" d="M120.018,246.847c0,0,0.252-13.99-28.288-16.339v36.641c0,0,3.658-0.289,11.074-3.963L120.018,246.847z"/>
<g>
	<path fill="#FCCF72" d="M65.504,248.828c0-7.7,4.758-14.279,11.487-16.99v33.98C70.262,263.107,65.504,256.528,65.504,248.828z"/>
</g>
<path fill="#058789" d="M515.674,301.183c0,0,35.238-22.779,54.131-23.047c0,0,30.55-2.545,41.001,10.184
	c0,0,4.381,5.359-4.107,7.102c0,0-1.787,1.339-6.61-2.949C600.088,292.472,562.57,277.735,515.674,301.183z"/>
<path fill="#5EC2AA" d="M471.189,158.215c0,0-20.099,6.029-20.099,8.04c0,0,8.963,29.999,8.04,33.363
	C459.13,199.618,470.682,160.419,471.189,158.215z"/>
<path fill="#0F9696" d="M480.434,151.381c0,0,13.146,8.843,14.612,23.314c0,0,7.314,39.795,26.499,51.452
	c0,0,5.92,3.932,11.547,7.594c0,0,13.667,5.671,7.638,24.966c0,0-0.362,6.689-12.239,12.188l-23.035,15.184
	c0,0-19.796,76.563-78.483,88.91H277.44c0,0-14.873-4.132-14.069-23.427H78.063c0,0,0.273-27.124,0.273-31.545
	c0,0,5.183-74.029,72.043-88.292l202.631-3.166c0,0-46.227,15.677-53.864,52.658c0,0-11.255,55.07,32.158,58.285h98.08
	c0,0,32.962,0,42.207-62.305c0,0,1.408-57.616-12.461-77.58c0,0,10.451-38.187,11.255-39.795s0.804-1.608,0.804-1.608
	S471.189,151.381,480.434,151.381z"/>
<g>
	<path fill="#A7B9C1" d="M299.146,277.892c5.425-26.272,30.314-41.782,44.281-48.567l9.583-0.15c0,0-46.227,15.677-53.864,52.659
		c0,0-1.098,5.372-1.284,12.857C297.658,285.228,299.146,277.892,299.146,277.892z"/>
	<path fill="#A7B9C1" d="M277.44,371.665h149.532c58.688-12.349,78.483-88.911,78.483-88.911l23.035-15.184
		c11.877-5.499,12.239-12.188,12.239-12.188c0.826-2.645,1.271-5.025,1.444-7.179c0.271,3.069-0.075,6.74-1.444,11.12
		c0,0-0.362,6.689-12.239,12.188l-23.035,15.184c0,0-19.796,76.562-78.483,88.91H277.44c0,0-14.873-4.133-14.069-23.427H78.063
		c0,0,0-1.552,0-3.941h185.308C262.567,367.532,277.44,371.665,277.44,371.665z"/>
</g>
<path fill="#5EC2AA" d="M478.827,137.312l1.607,14.07c0,0-23.716,8.843-29.344,8.843c0,0-4.823-9.246-4.421-14.472
	C446.669,145.753,449.081,141.733,478.827,137.312z"/>
<path fill="#058789" d="M477.427,152.479c0,0-25.974,7.067-26.337,7.745c0,0-5.074,4.408,0,6.03c0,0,17.748-6.827,20.099-8.04
	L477.427,152.479z"/>
<circle fill="#4C5564" cx="564.122" cy="374.991" r="44.216"/>
<circle fill="#FFFFFF" cx="564.122" cy="374.991" r="40.353"/>
<circle fill="#FCCF72" cx="564.123" cy="374.991" r="32.649"/>
<circle fill="#4C5564" cx="564.123" cy="374.991" r="5.271"/>
<path fill="#4C5564" d="M125.26,311.15c0,1.553,1.259,2.813,2.811,2.813h129.107c1.552,0,2.811-1.26,2.811-2.813l0,0
	c0-1.552-1.259-2.811-2.811-2.811H128.071C126.519,308.339,125.26,309.598,125.26,311.15L125.26,311.15z"/>
<path fill="#4C5564" d="M147.925,298.979c0,1.552,1.259,2.812,2.812,2.812h83.775c1.552,0,2.811-1.26,2.811-2.812l0,0
	c0-1.553-1.259-2.812-2.811-2.812h-83.775C149.184,296.167,147.925,297.426,147.925,298.979L147.925,298.979z"/>
<path fill="#4C5564" d="M147.925,334.637c0,1.553,1.259,2.812,2.812,2.812h83.775c1.552,0,2.811-1.259,2.811-2.812l0,0
	c0-1.553-1.259-2.812-2.811-2.812h-83.775C149.184,331.826,147.925,333.084,147.925,334.637L147.925,334.637z"/>
<path fill="#4C5564" d="M125.26,323.323c0,1.554,1.259,2.812,2.811,2.812h129.107c1.552,0,2.811-1.258,2.811-2.812l0,0
	c0-1.552-1.259-2.812-2.811-2.812H128.071C126.519,320.511,125.26,321.771,125.26,323.323L125.26,323.323z"/>
<path fill="none" stroke="#A7B9C1" stroke-miterlimit="10" d="M278.51,348.481c0,0,42.707-74.901-36.98-104.102
	c0,0-84.412-22.922-135.731,55.329c0,0-11.12,16.972-18.088,42.519"/>
<path fill="#4C5564" d="M328.801,189.948c0,0,15.29-5.56,25.947,0c0,0,28.268,10.193,11.123,33.36c0,0-0.971,6.674-15.775,6.906
	l-127.195,0.378c0,0-18.394-11.114-7.679-28.891c0,0,8.4-22.874,33.42-17.313c0,0,17.146,6.023,25.022,8.34
	C273.665,192.728,300.073,194.581,328.801,189.948z"/>
<path fill="#C52036" d="M50.729,176.438c0,22.2,17.997,40.197,40.197,40.197h91.804c22.201,0,40.197-17.997,40.197-40.197v-39.662
	c0-22.2-17.996-40.197-40.197-40.197H90.926c-22.2,0-40.197,17.997-40.197,40.197V176.438z"/>
<path fill="#A7B9C1" d="M41.619,169.202c0,2.441,1.979,4.421,4.422,4.421h179.813c2.441,0,4.422-1.98,4.422-4.421l0,0
	c0-2.442-1.98-4.422-4.422-4.422H46.041C43.597,164.78,41.619,166.76,41.619,169.202L41.619,169.202z"/>
<g opacity="0.25">
	<path fill="none" stroke="#A7B9C1" stroke-width="0.8039" stroke-miterlimit="10" d="M486.561,106.718v29.063
		c-14.712,0-26.64-6.506-26.64-14.532C459.921,113.224,471.849,106.718,486.561,106.718z"/>
</g>
<path fill="#5EC2AA" d="M484.052,139.322c0,0.888,0.721,1.608,1.607,1.608h9.647c0.888,0,1.608-0.72,1.608-1.608v-34.971
	c0-0.888-0.721-1.608-1.608-1.608h-9.647c-0.887,0-1.607,0.72-1.607,1.608V139.322z"/>
<g>
	<path fill="#FCCF72" d="M504.288,122.215c0,6.531-3.034,12.347-7.759,16.139v-32.277
		C501.253,109.869,504.288,115.685,504.288,122.215z"/>
</g>
<g>
	<path fill="#4C5564" d="M422.074,116.008h3.405c-0.589,0-1.154,0.086-1.703,0.214C423.228,116.094,422.663,116.008,422.074,116.008
		z"/>
	<path fill="#4C5564" d="M425.479,130.881h-3.405c0.589,0,1.154-0.085,1.702-0.214C424.325,130.795,424.89,130.881,425.479,130.881z
		"/>
	<path fill="#5EC2AA" d="M429.51,123.444c0-3.519-2.451-6.45-5.734-7.222c0.549-0.128,1.114-0.214,1.703-0.214
		c4.106,0,7.437,3.33,7.437,7.437s-3.33,7.437-7.437,7.437c-0.589,0-1.154-0.085-1.703-0.214
		C427.059,129.894,429.51,126.963,429.51,123.444z"/>
</g>
<g>
	<path fill="#D85B70" d="M50.729,136.777c0-22.2,17.997-40.197,40.197-40.197h91.804c22.201,0,40.197,17.997,40.197,40.197v24.252
		H50.729V136.777z"/>
</g>
<path fill="#4C5564" d="M41.619,157.412c0,2.442,1.979,4.422,4.422,4.422h179.813c2.441,0,4.422-1.98,4.422-4.422l0,0
	c0-2.442-1.98-4.422-4.422-4.422H46.041C43.597,152.99,41.619,154.97,41.619,157.412L41.619,157.412z"/>
<path fill="#058789" d="M484.525,163.141c0,0,9.788,68.88,17.131,77.271c0,0,7.961,16.433,19.89,16.083
	c0,0,10.88-2.098,8.434-11.888c0,0-18.531,7.993-31.47-33.216C498.509,211.391,486.971,179.225,484.525,163.141z"/>
<path fill="#058789" d="M129.647,285.393c0,0,39.799-28.926,61.901-30.448c0,0,35.605-4.936,48.656,9.298
	c0,0,5.472,5.994-4.354,8.578c0,0-2.007,1.682-7.928-3.029C227.922,269.792,183.051,254.938,129.647,285.393z"/>
</svg>
