<?xml version="1.0" encoding="utf-8"?>
<!-- Generator: Adobe Illustrator 16.0.0, SVG Export Plug-In . SVG Version: 6.00 Build 0)  -->
<!DOCTYPE svg PUBLIC "-//W3C//DTD SVG 1.1//EN" "http://www.w3.org/Graphics/SVG/1.1/DTD/svg11.dtd">
<svg version="1.1" xmlns="http://www.w3.org/2000/svg" xmlns:xlink="http://www.w3.org/1999/xlink" x="0px" y="0px" width="2400px"
	 height="1810.599px" viewBox="0 0 2400 1810.599" enable-background="new 0 0 2400 1810.599" xml:space="preserve">
<g id="background">
	<g>
		<g>
			<circle cx="1177.54" cy="802.316" r="727.943"/>
			<path fill="#FFFFFF" d="M883.103,313.434l-11.828-43.932l-11.83,43.932l-43.93,11.829l43.93,11.829l11.83,43.932l11.827-43.932
				l43.933-11.829L883.103,313.434z M959.545,1278.044l-11.83,43.933l-43.931,11.828l43.931,11.828l11.83,43.932l11.827-43.932
				l43.932-11.829l-43.931-11.827L959.545,1278.044z M550.229,717.638l-11.83,43.933l-43.931,11.828l43.931,11.829l11.83,43.931
				l11.827-43.931l43.932-11.83l-43.931-11.827L550.229,717.638z M1155.385,235.703l-11.829,43.932l-43.93,11.829l43.93,11.829
				l11.829,43.932l11.828-43.932l43.932-11.829l-43.931-11.828L1155.385,235.703z M661.749,409.779l-11.83,43.931l-43.931,11.829
				l43.931,11.828l11.83,43.932l11.827-43.932l43.933-11.829l-43.932-11.828L661.749,409.779z M1472.102,998.052l-11.828,43.933
				l-43.93,11.828l43.93,11.828l11.828,43.931l11.828-43.931l43.932-11.829l-43.932-11.827L1472.102,998.052z M1313.152,145.122
				l-11.828-43.931l-11.83,43.931l-43.93,11.829l43.93,11.829l11.83,43.932l11.826-43.932l43.934-11.829L1313.152,145.122z
				 M1816.553,735.486l-11.828-43.933l-11.828,43.933l-43.932,11.828l43.932,11.829l11.828,43.932l11.828-43.932l43.932-11.83
				L1816.553,735.486z M1727.512,911.313l-11.828,43.933l-43.932,11.828l43.932,11.828l11.828,43.932l11.828-43.932l43.934-11.83
				l-43.932-11.826L1727.512,911.313z M1402.957,1259.017l-11.83,43.934l-43.93,11.827l43.93,11.829l11.83,43.932l11.828-43.932
				l43.932-11.83l-43.932-11.826L1402.957,1259.017z"/>
		</g>
		<g>
			<g>
				<circle fill="#92278F" cx="1933.128" cy="1280.729" r="363.97"/>
				<path fill="#A154A1" d="M2290.328,1210.646c-125.18,102.686-219.518,271.218-265.02,422.264
					c156.377-40.818,271.789-183.015,271.789-352.18C2297.098,1256.753,2294.754,1233.326,2290.328,1210.646z M1933.127,916.761
					c-175.453,0-321.9,124.155-356.309,289.399c151.34-80.391,329.551-187.691,428.84-282.162
					C1982.219,919.258,1957.965,916.761,1933.127,916.761z M2133.82,977.073c-66.449,225.951-391.574,316.033-535.012,447.724
					c45.012,104.311,137.398,183.372,250.061,210.078c59.744-275.298,314.361-386.2,372.064-576.94
					C2196.539,1026.466,2167.096,999.11,2133.82,977.073z"/>
				<path fill="#AA68AB" d="M1736.492,1140.639c-16.557,0-29.979,13.421-29.979,29.979c0,16.557,13.422,29.979,29.979,29.979
					s29.979-13.422,29.979-29.979C1766.471,1154.06,1753.049,1140.639,1736.492,1140.639z M1706.514,1218.245
					c-26.654,0-48.262,21.607-48.262,48.263s21.607,48.261,48.262,48.261s48.262-21.605,48.262-48.261
					S1733.168,1218.245,1706.514,1218.245z M2042.66,1367.691c-22.938,0-41.531,18.593-41.531,41.53
					c0,22.936,18.594,41.53,41.531,41.53s41.531-18.595,41.531-41.53C2084.191,1386.284,2065.598,1367.691,2042.66,1367.691z"/>
			</g>
			<path opacity="0.1" d="M1978.717,919.597c147.664,46.38,254.779,184.325,254.779,347.294
				c0,201.014-162.955,363.969-363.969,363.969c-15.441,0-30.654-0.97-45.59-2.837c34.471,10.827,71.146,16.674,109.189,16.674
				c201.016,0,363.971-162.954,363.971-363.968C2297.098,1095.156,2158.213,942.029,1978.717,919.597z"/>
		</g>
	</g>
</g>
<g id="rocket">
	<g>
		<g>
			<path fill="#808285" d="M930.994,921.87c-64.827-92.582-238.36-163.651-380.765-27.305
				c15.464,83.738,56.108,146.556,106.888,219.077c50.779,72.519,95.907,132.196,169.307,175.371
				C1003.252,1201.827,995.82,1014.45,930.994,921.87z"/>
			<path fill="#939598" d="M930.994,921.87c-55.298-78.975-189.696-142.291-316.4-74.567
				c24.736,76.39,64.08,143.648,114.633,215.845c50.552,72.198,100.296,132.172,163.622,181.544
				C999.823,1148.79,986.293,1000.844,930.994,921.87z"/>
			<path fill="#D71920" d="M815.515,1282.323c-67.053-42.567-110.188-99.832-158.397-168.682
				c-48.148-68.764-87.17-128.818-104.269-206.24c-92.322-1.772-135.716,17.075-195.717,42.168
				c-122.643,51.289-221.446,120.47-221.446,120.47s83.373,57.571,120.858,43.109c-83.104,67.616-159.447,90.719-159.447,90.719
				s140.624,74.365,229.782,21.758c-103.68,92.26-121.669,204.678-121.669,204.678s125.514,17.646,244.772-49.328
				c-62.468,55.148-42.192,180.622-42.192,180.622s40.709-49.826,120.228-94.6c-34.008,35.753,3.564,143.255,3.564,143.255
				s83.257-73.059,165.025-160.381C742.562,1400.797,787.252,1349.017,815.515,1282.323z"/>
			<path fill="#F26522" d="M657.117,1113.642c-36.58-52.242-67.898-99.451-88.335-153.07c-83.694-4.382-246.43,81.144-246.43,81.144
				s75.761,54.474,105.063,42.197c-38.483,38.201-78.67,62.566-78.67,62.566s76.23,40.316,117.553,23.145
				c-47.847,46.924-62.988,124.161-62.988,124.161s76.863,15.984,150.531-19.781c-34.488,36.154-26.118,96.939-25.479,100.498
				c0,0,37.837-12.087,76.42-27.306c-18.333,20.994-5.294,90.306-5.294,90.306s154.205-115.126,174.102-186.079
				c0.019,0.016,0.038,0.03,0.056,0.047C728.843,1213.458,694.505,1167.036,657.117,1113.642z"/>
			<path fill="#A7A9AC" d="M930.994,921.87c-43.453-62.055-135.744-114.442-234.767-101.184
				c24.845,66.484,61.011,126.923,106.081,191.291c45.07,64.365,89.494,119.022,143.473,165.108
				C992.108,1088.568,974.447,983.927,930.994,921.87z"/>
		</g>
		<g>
			<path fill="#D1D3D4" d="M1994.547,177.165c-0.002-0.002-357.84-113.323-800.563,196.675
				c-246.611,172.679-377.541,310.243-448.9,406.245c14.864,54.229,50.621,124.657,103.179,199.716
				c52.556,75.06,106.506,132.745,152.38,165.263c114.62-34.224,288.667-110.207,535.281-282.886
				C1978.643,552.18,1994.547,177.165,1994.547,177.165z"/>
			<path fill="#ED1C24" d="M1994.547,177.165c0,0-96.334-30.498-250.857-16.561c24.271,45.039,51.906,89.978,82.863,134.188
				c30.957,44.211,63.732,85.55,97.754,123.762C1990.256,278.116,1994.547,177.165,1994.547,177.165z"/>
			<path fill="#E6E7E8" d="M1693.893,733.176c-66.213-60.511-129.789-132.574-187.135-214.471s-103.318-166.288-137.533-249.203
				c-56.393,27.853-115.037,62.171-175.256,104.338c-67.959,47.585-127.118,92.498-178.681,134.616
				c34.494,85.129,81.42,171.931,140.357,256.101c58.937,84.17,124.453,157.954,192.652,219.484
				c57.213-34.048,119.65-74.278,187.609-121.862C1596.125,820.011,1648.434,776.641,1693.893,733.176z"/>
			<path opacity="0.1" d="M1994.547,177.165l-0.002-0.001L848.262,979.799c0,0.002,0,0.002,0.001,0.002
				c52.556,75.06,106.506,132.745,152.38,165.263c114.62-34.224,288.667-110.207,535.281-282.886
				C1978.643,552.18,1994.547,177.165,1994.547,177.165z"/>
			<g>
				<path fill="#BCBEC0" d="M1379.811,337.941c-3.027,2.12-3.764,6.293-1.645,9.319c2.119,3.027,6.293,3.763,9.32,1.643
					c3.025-2.119,3.762-6.292,1.643-9.318C1387.01,336.557,1382.836,335.821,1379.811,337.941z M1215.402,692.765
					c-3.027,2.119-3.764,6.291-1.645,9.317c2.119,3.028,6.293,3.764,9.318,1.643c3.029-2.118,3.764-6.292,1.645-9.318
					C1222.602,691.38,1218.43,690.644,1215.402,692.765z M1363.375,589.152c-3.027,2.119-3.764,6.291-1.643,9.318
					c2.119,3.028,6.293,3.763,9.318,1.643c3.027-2.119,3.764-6.292,1.643-9.318C1370.574,587.767,1366.402,587.032,1363.375,589.152
					z M1625.523,688.86c-3.025,2.119-3.762,6.292-1.643,9.318c2.121,3.028,6.293,3.764,9.32,1.643
					c3.027-2.119,3.762-6.292,1.643-9.318C1632.725,687.475,1628.553,686.74,1625.523,688.86z M1796.109,294.317
					c-2.121-3.028-6.293-3.763-9.32-1.644c-3.027,2.119-3.764,6.292-1.643,9.318c2.119,3.028,6.291,3.764,9.32,1.643
					C1797.492,301.516,1798.229,297.343,1796.109,294.317z M1681.66,366.285c-3.025,2.119-3.762,6.292-1.643,9.319
					c2.119,3.026,6.291,3.763,9.32,1.643c3.027-2.12,3.762-6.292,1.643-9.319C1688.859,364.901,1684.688,364.166,1681.66,366.285z"
					/>
				<path fill="#A7A9AC" d="M1011.45,558.053c-3.026,2.12-3.764,6.292-1.643,9.319c2.119,3.027,6.292,3.763,9.319,1.644
					c3.026-2.12,3.763-6.293,1.643-9.319C1018.649,556.668,1014.477,555.933,1011.45,558.053z M1289.85,953.072
					c-2.119-3.029-6.291-3.764-9.32-1.645c-3.025,2.119-3.762,6.292-1.641,9.32c2.117,3.026,6.293,3.762,9.318,1.642
					C1291.232,960.271,1291.969,956.098,1289.85,953.072z M1082.272,699.456c-3.026,2.12-3.763,6.292-1.642,9.319
					c2.119,3.027,6.292,3.763,9.318,1.643c3.027-2.119,3.763-6.292,1.644-9.319C1089.472,698.071,1085.3,697.335,1082.272,699.456z
					 M1182.223,842.885c-3.024,2.12-3.762,6.292-1.642,9.319c2.12,3.026,6.292,3.762,9.319,1.643
					c3.025-2.119,3.763-6.292,1.643-9.319C1189.424,841.5,1185.251,840.765,1182.223,842.885z"/>
			</g>
		</g>
		<g>
			<g>
				<g>
					<path fill="#A7A9AC" d="M1662.236,409.85c-48.293-68.967-143.354-85.731-212.322-37.438
						c-68.969,48.292-85.729,143.353-37.436,212.32c48.289,68.968,143.352,85.731,212.318,37.439
						C1693.766,573.877,1710.527,478.818,1662.236,409.85z M1611.344,602.957c-58.359,40.862-138.793,26.68-179.654-31.678
						c-40.861-58.357-26.68-138.792,31.678-179.654c58.357-40.863,138.793-26.68,179.656,31.677
						C1683.885,481.66,1669.701,562.095,1611.344,602.957z"/>
				</g>
			</g>
			<g>
				<g>
					<path d="M1643.023,423.302c-40.863-58.357-121.299-72.541-179.656-31.677c-58.357,40.862-72.539,121.296-31.678,179.654
						c40.861,58.358,121.295,72.541,179.654,31.678C1669.701,562.095,1683.885,481.66,1643.023,423.302z M1603.436,591.665
						c-52.119,36.496-123.957,23.829-160.453-28.292c-36.494-52.121-23.828-123.958,28.293-160.453
						c52.121-36.496,123.959-23.829,160.453,28.291C1668.225,483.332,1655.559,555.168,1603.436,591.665z"/>
				</g>
			</g>
			<circle fill="#00C0F3" cx="1537.355" cy="497.292" r="115.208"/>
			<path opacity="0.3" fill="#FFFFFF" d="M1593.414,577.351c-44.217,30.959-6.959-180.333,24-136.118
				C1648.375,485.449,1637.629,546.39,1593.414,577.351z"/>
			<g>
				<circle fill="#808285" cx="1652.779" cy="416.47" r="6.692"/>
				<circle fill="#808285" cx="1525.074" cy="356.921" r="6.692"/>
				<path fill="#808285" d="M1412.479,431.678c3.35,1.56,4.797,5.542,3.234,8.892c-1.559,3.35-5.541,4.798-8.891,3.236
					c-3.35-1.561-4.797-5.543-3.236-8.891C1405.148,431.564,1409.127,430.116,1412.479,431.678z"/>
				<path fill="#808285" d="M1418.094,572.633c3.027-2.123,7.199-1.384,9.32,1.643c2.117,3.025,1.383,7.198-1.645,9.318
					c-3.025,2.121-7.199,1.383-9.318-1.643C1414.332,578.923,1415.064,574.753,1418.094,572.633z"/>
				<path fill="#808285" d="M1542.971,638.246c-0.324-3.684,2.4-6.927,6.084-7.249c3.68-0.324,6.926,2.4,7.248,6.082
					c0.322,3.682-2.4,6.926-6.082,7.249C1546.537,644.648,1543.295,641.93,1542.971,638.246z"/>
				<path fill="#808285" d="M1662.234,562.906c-3.352-1.563-4.799-5.542-3.234-8.893c1.559-3.349,5.539-4.798,8.889-3.237
					c3.35,1.563,4.797,5.544,3.236,8.894C1669.563,563.018,1665.584,564.467,1662.234,562.906z"/>
			</g>
		</g>
		<g>
			<path fill="#00C0F3" d="M913.827,997.186c-234.143,163.948-551.947,358.138-568.371,334.682
				c-16.424-23.456,274.75-255.677,508.893-419.624c271.521-190.122,329.584-214.673,351.756-183.008
				C1228.275,760.896,1185.348,807.064,913.827,997.186z"/>
			<path fill="#00C0F3" d="M842.697,665.962c48.449-50.372,109.938-107.239,188.232-170.17
				c-108.199-68.316-330.788-74.421-563.663,77.197C224.406,731.112,127.767,852.265,143.94,875.363
				c16.174,23.098,220.997-132.777,394.442-192.691C645.113,645.803,740.161,634.75,842.697,665.962z M1365.234,973.886
				c-86.043,52.109-160.604,90.459-224.561,118.747c-5.959,106.547-48.801,191.817-119.721,279.219
				c-115.624,142.494-332.152,281.652-315.979,304.75c16.174,23.099,163.071-26.274,394.723-200.407
				C1321.25,1309.646,1391.855,1099.043,1365.234,973.886z"/>
		</g>
	</g>
</g>
</svg>
