<?xml version="1.0" encoding="utf-8"?>
<!-- Generator: Adobe Illustrator 16.0.0, SVG Export Plug-In . SVG Version: 6.00 Build 0)  -->
<!DOCTYPE svg PUBLIC "-//W3C//DTD SVG 1.1//EN" "http://www.w3.org/Graphics/SVG/1.1/DTD/svg11.dtd">
<svg version="1.1" id="Calque_1" xmlns="http://www.w3.org/2000/svg" xmlns:xlink="http://www.w3.org/1999/xlink" x="0px" y="0px"
	 width="1920px" height="880px" viewBox="0 0 1920 880" enable-background="new 0 0 1920 880" xml:space="preserve">
<rect x="-46" y="-425" fill="#6AC0BD" width="2054" height="1305"/>
<path fill="#FFFFFF" d="M1629.265,418.691c1.314-3.896,2.073-7.983,2.073-12.226c0-25.304-24.989-45.815-55.813-45.815
	c-27.843,0-50.855,16.758-55.058,38.647c-6.479-8.086-17.613-13.431-30.283-13.431c-20.017,0-36.239,13.321-36.239,29.75
	c0,1.103,0.086,2.188,0.229,3.257c-17.641,1.611-31.366,15.057-31.366,29.967c0,16.004,15.81,30.159,35.305,30.159h170.938
	c19.494,0,35.304-14.155,35.304-30.159C1664.354,432.896,1648.659,418.787,1629.265,418.691z"/>
<path fill="#FFFFFF" d="M504.03,658.627c-0.866-2.563-1.362-5.251-1.362-8.041c0-16.637,16.43-30.123,36.696-30.123
	c18.308,0,33.44,11.018,36.202,25.41c4.259-5.316,11.582-8.83,19.912-8.83c13.161,0,23.828,8.759,23.828,19.561
	c0,0.726-0.056,1.438-0.15,2.142c11.598,1.06,20.623,8.763,20.623,18.565c0,10.523-10.395,18.689-23.212,18.689H504.17
	c-12.818,0-23.212-8.166-23.212-18.689C480.958,666.826,491.276,658.688,504.03,658.627z"/>
<path fill="#FFFFFF" d="M311.171,529.576c-1.148-3.4-1.806-6.967-1.806-10.668c0-22.076,21.8-39.972,48.691-39.972
	c24.293,0,44.374,14.621,48.039,33.719c5.651-7.056,15.367-11.718,26.42-11.718c17.464,0,31.618,11.621,31.618,25.955
	c0,0.963-0.076,1.908-0.198,2.842c15.389,1.405,27.364,12.041,27.364,25.049c0,13.964-13.793,25.217-30.801,25.217h-149.14
	c-17.008,0-30.801-11.253-30.801-25.217C280.558,540.871,294.249,529.659,311.171,529.576z"/>
<rect x="146" y="880" fill="#FFFFFF" width="1670" height="67"/>
<g>
	<path fill-rule="evenodd" clip-rule="evenodd" fill="#C1494E" d="M962.946,904.292c0.514-0.248,1.378-0.292,1.325-0.888
		c-0.037-0.592-0.526-1.764,0.903-2.165c1.438-0.398,0.63,0.351,0.137,0.866c-0.496,0.516-0.335,0.834-0.273,1.594
		c0.051,0.75-0.591,1.007-1.562,1.379C962.502,905.453,962.429,904.543,962.946,904.292"/>
	<path fill-rule="evenodd" clip-rule="evenodd" fill="#C1494E" d="M939.588,897.584c5.582-1.148,9.072,0.171,9.072,0.171
		l-0.298,1.322c0,0-4.077-0.225-7.316,0.17c-3.229,0.382-4.701,1.223-4.701,1.223l-0.702-1.316
		C935.644,899.153,937.175,898.079,939.588,897.584"/>
	<polygon fill-rule="evenodd" clip-rule="evenodd" fill="#C1494E" points="941.26,895.703 942.047,895.468 943.083,897.747 
		942.304,897.995 	"/>
	<path fill-rule="evenodd" clip-rule="evenodd" fill="#C1494E" d="M965.848,899.946c0.786-0.036,1.463,0.456,1.51,1.099
		c0.056,0.646-0.544,1.198-1.335,1.242c-0.789,0.04-1.466-0.456-1.513-1.092C964.459,900.546,965.059,899.997,965.848,899.946"/>
	<path fill-rule="evenodd" clip-rule="evenodd" fill="#C1494E" d="M916.83,904.379c0.783-0.044,1.464,0.448,1.517,1.091
		c0.044,0.643-0.551,1.188-1.346,1.232c-0.783,0.043-1.456-0.446-1.515-1.085C915.439,904.971,916.043,904.426,916.83,904.379"/>
	<path fill-rule="evenodd" clip-rule="evenodd" fill="#C1494E" d="M941.945,892.781c1.252-0.058,2.336,0.709,2.412,1.74
		c0.074,1.014-0.88,1.904-2.134,1.972c-1.258,0.069-2.324-0.707-2.41-1.737C939.727,893.728,940.683,892.844,941.945,892.781"/>
	<g>
		<path fill="#C1494E" d="M976.398,906.541h1.43v-1.482c0-1.54,0.23-2.766,0.707-3.676c0.469-0.907,1.286-1.566,2.42-1.984
			c1.134-0.409,2.695-0.617,4.662-0.617c3.513,0,5.254,0.697,5.254,2.119c0,0.449-0.188,0.848-0.561,1.162
			c-0.355,0.328-0.791,0.489-1.287,0.489c-0.232,0-0.642-0.03-1.219-0.111c-0.548-0.07-1.048-0.113-1.441-0.113
			c-1.078,0-1.768,0.268-2.092,0.797c-0.291,0.512-0.45,1.262-0.45,2.242v1.175h1.464c2.287,0,3.421,0.556,3.421,1.697
			c0,0.797-0.29,1.305-0.901,1.529c-0.607,0.215-1.447,0.322-2.52,0.322h-1.464v13.036c0,0.968-0.277,1.708-0.856,2.21
			c-0.554,0.519-1.278,0.776-2.173,0.776c-0.854,0-1.552-0.258-2.126-0.776c-0.559-0.502-0.838-1.242-0.838-2.21V910.09h-1.647
			c-0.903,0-1.578-0.157-2.069-0.493c-0.484-0.324-0.724-0.76-0.724-1.295C973.388,907.124,974.389,906.541,976.398,906.541"/>
		<path fill="#C1494E" d="M996.019,919.013v4.113c0,0.991-0.309,1.737-0.869,2.236c-0.568,0.506-1.286,0.75-2.163,0.75
			c-0.882,0-1.588-0.244-2.138-0.763c-0.549-0.503-0.832-1.238-0.832-2.224v-13.703c0-2.213,0.973-3.323,2.913-3.323
			c1.001,0,1.713,0.261,2.157,0.773c0.436,0.525,0.675,1.285,0.728,2.296c0.713-1.011,1.445-1.771,2.197-2.296
			c0.763-0.513,1.764-0.773,3.021-0.773c1.27,0,2.48,0.261,3.665,0.773c1.192,0.525,1.784,1.215,1.784,2.058
			c0,0.606-0.257,1.102-0.753,1.49c-0.514,0.392-1.056,0.589-1.635,0.589c-0.23,0-0.76-0.114-1.6-0.342
			c-0.843-0.214-1.586-0.324-2.229-0.324c-0.877,0-1.597,0.188-2.143,0.562c-0.561,0.385-0.997,0.944-1.309,1.688
			c-0.296,0.747-0.506,1.634-0.63,2.658C996.067,916.285,996.019,917.533,996.019,919.013"/>
		<path fill="#C1494E" d="M1023.571,917.316h-11.729c0.022,1.121,0.287,2.111,0.821,2.958c0.536,0.851,1.254,1.493,2.135,1.932
			c0.891,0.432,1.861,0.646,2.927,0.646c0.722,0,1.376-0.071,1.972-0.215c0.585-0.127,1.164-0.352,1.721-0.646
			c0.559-0.295,1.063-0.604,1.53-0.948c0.472-0.334,1.083-0.793,1.823-1.368c0.319-0.214,0.756-0.325,1.32-0.325
			c0.616,0,1.109,0.138,1.497,0.422c0.385,0.274,0.566,0.659,0.566,1.172c0,0.444-0.206,0.96-0.618,1.557
			c-0.436,0.603-1.072,1.161-1.933,1.71c-0.864,0.542-1.942,1.008-3.229,1.365c-1.297,0.358-2.791,0.536-4.471,0.536
			c-3.859,0-6.85-0.894-8.979-2.701c-2.135-1.808-3.211-4.248-3.211-7.334c0-1.449,0.265-2.805,0.799-4.057
			c0.518-1.249,1.293-2.303,2.31-3.203c1.005-0.881,2.24-1.563,3.727-2.038c1.477-0.473,3.113-0.71,4.915-0.71
			c2.341,0,4.347,0.401,6.026,1.218c1.669,0.814,2.939,1.857,3.765,3.144c0.83,1.289,1.25,2.601,1.25,3.936
			c0,1.226-0.437,2.033-1.301,2.397C1026.344,917.135,1025.137,917.316,1023.571,917.316 M1011.842,914.521h10.869
			c-0.148-1.677-0.692-2.938-1.655-3.772c-0.962-0.833-2.216-1.245-3.789-1.245c-1.492,0-2.72,0.412-3.678,1.259
			C1012.629,911.619,1012.048,912.867,1011.842,914.521"/>
		<path fill="#C1494E" d="M1048.495,917.316h-11.72c0.017,1.121,0.289,2.111,0.819,2.958c0.528,0.851,1.246,1.493,2.126,1.932
			c0.887,0.432,1.865,0.646,2.936,0.646c0.714,0,1.377-0.071,1.964-0.215c0.589-0.127,1.159-0.352,1.725-0.646
			c0.559-0.295,1.063-0.604,1.535-0.948c0.456-0.334,1.078-0.793,1.818-1.368c0.315-0.214,0.756-0.325,1.316-0.325
			c0.624,0,1.113,0.138,1.507,0.422c0.375,0.274,0.559,0.659,0.559,1.172c0,0.444-0.212,0.96-0.632,1.557
			c-0.412,0.603-1.057,1.161-1.925,1.71c-0.856,0.542-1.938,1.008-3.221,1.365c-1.288,0.358-2.795,0.536-4.479,0.536
			c-3.848,0-6.838-0.894-8.98-2.701c-2.134-1.808-3.204-4.248-3.204-7.334c0-1.449,0.263-2.805,0.797-4.057
			c0.521-1.249,1.29-2.303,2.302-3.203c1.005-0.881,2.248-1.563,3.734-2.038c1.474-0.473,3.117-0.71,4.915-0.71
			c2.338,0,4.344,0.401,6.044,1.218c1.668,0.814,2.922,1.857,3.747,3.144c0.826,1.289,1.258,2.601,1.258,3.936
			c0,1.226-0.44,2.033-1.296,2.397C1051.271,917.135,1050.061,917.316,1048.495,917.316 M1036.775,914.521h10.859
			c-0.141-1.677-0.701-2.938-1.651-3.772c-0.97-0.833-2.22-1.245-3.789-1.245c-1.497,0-2.716,0.412-3.685,1.259
			C1037.559,911.619,1036.967,912.867,1036.775,914.521"/>
		<path fill="#C1494E" d="M1061.624,908.867v0.593c1.121-1.139,2.306-1.975,3.528-2.515c1.19-0.531,2.577-0.81,4.111-0.81
			c1.839,0,3.552,0.396,5.107,1.175c1.549,0.791,2.764,1.922,3.663,3.432c0.905,1.506,1.359,3.276,1.359,5.335
			c0,1.51-0.261,2.898-0.774,4.174c-0.518,1.266-1.245,2.33-2.146,3.184c-0.911,0.854-1.981,1.526-3.213,1.988
			c-1.25,0.462-2.566,0.689-3.996,0.689c-1.706,0-3.151-0.281-4.307-0.847c-1.169-0.553-2.271-1.396-3.333-2.484v7.389
			c0,2.162-0.967,3.242-2.875,3.242c-1.134,0-1.865-0.273-2.244-0.833c-0.353-0.565-0.54-1.369-0.54-2.446v-21.235
			c0-0.938,0.244-1.637,0.739-2.099c0.498-0.455,1.181-0.699,2.045-0.699c0.853,0,1.537,0.244,2.067,0.716
			C1061.362,907.295,1061.624,907.971,1061.624,908.867 M1073.374,916.018c0-1.299-0.243-2.41-0.729-3.338
			c-0.479-0.94-1.148-1.644-2.007-2.148c-0.844-0.499-1.802-0.746-2.846-0.746c-1.646,0-3.041,0.532-4.175,1.603
			c-1.138,1.071-1.706,2.642-1.706,4.727c0,1.951,0.564,3.474,1.694,4.572c1.129,1.081,2.516,1.624,4.187,1.624
			c0.997,0,1.921-0.241,2.772-0.707c0.854-0.479,1.535-1.188,2.041-2.142C1073.119,918.514,1073.374,917.359,1073.374,916.018"/>
		<path fill="#C1494E" d="M1085.426,903.807c-0.838,0-1.543-0.215-2.13-0.623c-0.598-0.435-0.897-1.017-0.897-1.78
			c0-0.7,0.304-1.275,0.916-1.725c0.603-0.451,1.316-0.683,2.111-0.683c0.787,0,1.468,0.208,2.067,0.613
			c0.6,0.415,0.901,1.011,0.901,1.794c0,0.753-0.294,1.346-0.877,1.773C1086.933,903.592,1086.243,903.807,1085.426,903.807
			 M1088.395,908.897v14.229c0,0.985-0.286,1.721-0.854,2.224c-0.577,0.519-1.297,0.763-2.173,0.763
			c-0.887,0-1.584-0.258-2.146-0.776c-0.537-0.521-0.822-1.252-0.822-2.21v-14.091c0-0.961,0.285-1.697,0.822-2.184
			c0.563-0.508,1.26-0.752,2.146-0.752c0.876,0,1.596,0.244,2.173,0.752C1088.108,907.338,1088.395,908.03,1088.395,908.897"/>
		<path fill="#C1494E" d="M1107.718,923.869l-5.28-7.146l-3.26,2.521v3.92c0,0.948-0.299,1.667-0.915,2.173
			c-0.591,0.519-1.305,0.776-2.092,0.776c-0.927,0-1.646-0.244-2.177-0.763c-0.518-0.503-0.791-1.238-0.791-2.224v-20.993
			c0-1.088,0.261-1.922,0.765-2.486c0.518-0.58,1.258-0.865,2.203-0.865c0.92,0,1.647,0.259,2.189,0.788
			c0.545,0.505,0.817,1.271,0.817,2.279v11.936l6.742-5.808c0.838-0.716,1.468-1.211,1.912-1.479
			c0.444-0.259,0.971-0.398,1.592-0.398c0.757,0,1.376,0.201,1.89,0.586c0.487,0.395,0.736,0.883,0.736,1.473
			c0,0.709-0.813,1.687-2.435,2.885l-3.182,2.39l6.143,7.94c0.444,0.588,0.782,1.034,0.98,1.342
			c0.195,0.302,0.299,0.603,0.299,0.877c0,0.783-0.261,1.393-0.782,1.851c-0.522,0.449-1.219,0.67-2.055,0.67
			c-0.73,0-1.295-0.15-1.688-0.485C1108.931,925.296,1108.385,924.713,1107.718,923.869"/>
		<path fill="#C1494E" d="M1120.738,926.112c-0.909,0-1.684-0.237-2.345-0.72c-0.654-0.476-0.99-1.155-0.99-2.025
			c0-0.729,0.324-1.361,0.95-1.885c0.632-0.531,1.406-0.789,2.325-0.789c0.92,0,1.707,0.258,2.367,0.772
			c0.645,0.526,0.982,1.165,0.982,1.901c0,0.864-0.338,1.53-0.982,2.012C1122.386,925.875,1121.617,926.112,1120.738,926.112"/>
		<path fill="#C1494E" d="M1150.55,920.018c0,0.618-0.226,1.271-0.67,1.965c-0.444,0.705-1.13,1.358-2.053,2.001
			c-0.907,0.626-2.06,1.131-3.454,1.521c-1.39,0.381-2.956,0.578-4.687,0.578c-3.714,0-6.608-0.887-8.688-2.66
			c-2.071-1.774-3.114-4.151-3.114-7.127c0-2.031,0.471-3.81,1.433-5.365c0.941-1.54,2.32-2.745,4.124-3.592
			c1.796-0.851,3.957-1.269,6.454-1.269c1.554,0,2.975,0.187,4.279,0.559c1.296,0.368,2.387,0.857,3.294,1.437
			c0.889,0.602,1.582,1.222,2.057,1.881c0.476,0.673,0.71,1.295,0.71,1.881c0,0.579-0.261,1.085-0.795,1.486
			c-0.54,0.415-1.192,0.623-1.938,0.623c-0.504,0-0.92-0.114-1.252-0.321c-0.33-0.215-0.699-0.553-1.109-1.021
			c-0.731-0.917-1.492-1.6-2.293-2.052c-0.791-0.465-1.809-0.689-3.038-0.689c-1.761,0-3.202,0.569-4.28,1.707
			c-1.083,1.128-1.629,2.694-1.629,4.656c0,0.92,0.148,1.783,0.426,2.554c0.265,0.771,0.673,1.433,1.203,1.984
			c0.529,0.543,1.159,0.951,1.903,1.239c0.753,0.294,1.574,0.432,2.463,0.432c1.207,0,2.234-0.234,3.084-0.693
			c0.873-0.455,1.623-1.154,2.286-2.089c0.362-0.549,0.748-0.983,1.168-1.291c0.424-0.308,0.945-0.473,1.562-0.473
			c0.74,0,1.352,0.231,1.822,0.687C1150.304,919.013,1150.55,919.515,1150.55,920.018"/>
		<path fill="#C1494E" d="M1176.414,916.114c0,1.463-0.284,2.812-0.822,4.054c-0.572,1.238-1.369,2.306-2.43,3.183
			c-1.048,0.897-2.318,1.577-3.768,2.049c-1.478,0.476-3.123,0.713-4.949,0.713c-1.811,0-3.445-0.237-4.895-0.72
			c-1.441-0.476-2.707-1.168-3.766-2.059c-1.064-0.903-1.863-1.961-2.424-3.177c-0.532-1.225-0.817-2.57-0.817-4.043
			c0-1.489,0.296-2.858,0.834-4.101c0.557-1.245,1.359-2.296,2.403-3.166c1.044-0.877,2.289-1.561,3.77-2.032
			c1.484-0.472,3.119-0.716,4.895-0.716c1.816,0,3.463,0.244,4.949,0.723c1.47,0.481,2.728,1.171,3.794,2.045
			c1.061,0.907,1.859,1.958,2.407,3.18C1176.135,913.278,1176.414,914.631,1176.414,916.114 M1170.394,916.114
			c0-2.008-0.542-3.562-1.612-4.683c-1.072-1.128-2.52-1.688-4.336-1.688c-1.172,0-2.2,0.244-3.099,0.747
			c-0.897,0.502-1.569,1.229-2.062,2.212c-0.479,0.974-0.724,2.109-0.724,3.411c0,1.292,0.232,2.399,0.712,3.364
			c0.483,0.96,1.158,1.704,2.049,2.212c0.893,0.506,1.929,0.77,3.123,0.77c1.816,0,3.264-0.562,4.336-1.689
			C1169.852,919.642,1170.394,918.092,1170.394,916.114"/>
		<path fill="#C1494E" d="M1199.271,916.472v6.545c0,1.034-0.275,1.798-0.849,2.319c-0.581,0.519-1.32,0.776-2.263,0.776
			c-0.907,0-1.651-0.258-2.193-0.776c-0.575-0.521-0.86-1.285-0.86-2.319v-7.843c0-1.238-0.051-2.206-0.15-2.896
			c-0.106-0.67-0.386-1.235-0.838-1.681c-0.457-0.435-1.177-0.659-2.151-0.659c-1.969,0-3.255,0.553-3.873,1.67
			c-0.615,1.095-0.939,2.688-0.939,4.764v6.645c0,1.018-0.284,1.79-0.838,2.313c-0.571,0.525-1.309,0.783-2.23,0.783
			c-0.905,0-1.655-0.258-2.236-0.783c-0.577-0.522-0.872-1.295-0.872-2.313v-14.086c0-0.917,0.269-1.627,0.778-2.108
			c0.534-0.479,1.215-0.723,2.061-0.723c0.822,0,1.503,0.233,2.06,0.68c0.546,0.444,0.815,1.071,0.815,1.867v0.466
			c1.052-1.011,2.161-1.774,3.341-2.247c1.195-0.488,2.5-0.729,3.961-0.729c1.503,0,2.797,0.251,3.876,0.737
			c1.086,0.502,1.973,1.251,2.679,2.239c1.021-1.005,2.104-1.758,3.26-2.247c1.157-0.479,2.438-0.729,3.84-0.729
			c1.635,0,3.059,0.278,4.244,0.801c1.177,0.521,2.058,1.291,2.645,2.259c0.52,0.9,0.769,2.303,0.769,4.211v9.61
			c0,1.034-0.285,1.798-0.854,2.319c-0.561,0.519-1.322,0.776-2.263,0.776c-0.907,0-1.647-0.258-2.222-0.783
			c-0.581-0.522-0.866-1.295-0.866-2.313v-8.281c0-1.059-0.062-1.901-0.168-2.544c-0.111-0.633-0.403-1.169-0.887-1.601
			c-0.487-0.428-1.227-0.652-2.201-0.652c-0.787,0-1.541,0.208-2.251,0.585c-0.709,0.382-1.262,0.908-1.667,1.541
			C1199.496,912.901,1199.271,914.366,1199.271,916.472"/>
		<path fill-rule="evenodd" clip-rule="evenodd" fill="#C1494E" d="M934.892,927.837c0,0-3.274-0.433-6.468-3.298
			c-3.213-2.892-3.753-5.951-3.753-5.951s4.077,0.786,7.005,1.054c5.166,0.482,9.813,0.215,12.003,0.018
			c4.744-0.433,7.268-1.146,8.297-1.353c6.059-1.198,11.885-4.415,11.885-4.415s0.74,3.735-2.683,7.883
			c-1.337,1.616-4,3.478-7.062,4.76C943.621,930.21,934.892,927.837,934.892,927.837"/>
		<path fill-rule="evenodd" clip-rule="evenodd" fill="#C1494E" d="M959.668,906.592c-1.121-1.122-4.88-6.404-12.482-7.174
			c-1.938-0.19-12.217,0.141-18.382,4.82c-0.607,0.476-3.739,2.728-4.774,6.932c-0.811,3.247,0.514,6.902,0.514,6.902
			s6.837,1.171,11.987,1.061c8.167-0.163,12.28-0.759,16.549-1.82c6.285-1.56,10.744-4.178,10.744-4.178
			S960.802,907.72,959.668,906.592 M936.098,914.631c-3.453,0.182-6.425-1.951-6.637-4.779c-0.216-2.812,2.412-5.256,5.863-5.426
			c3.458-0.194,6.438,1.951,6.64,4.764C942.186,912.014,939.552,914.454,936.098,914.631 M953.744,910.993
			c-2.173,0.1-4.044-1.242-4.183-3.017c-0.134-1.77,1.525-3.307,3.694-3.413c2.169-0.121,4.053,1.231,4.183,2.999
			C957.577,909.339,955.913,910.876,953.744,910.993"/>
		<path fill-rule="evenodd" clip-rule="evenodd" fill="#C1494E" d="M956.716,902.933l1.986-1.955c0,0,2.74,1.111,4.507,3.193
			c1.749,2.079,2.896,3.979,2.896,3.979l-3.276,1.635c0,0-1.013-2.006-2.54-3.615C958.77,904.569,956.716,902.933,956.716,902.933"
			/>
		<path fill-rule="evenodd" clip-rule="evenodd" fill="#C1494E" d="M926.538,905.493c0,0-2.298,2.192-2.887,4.171
			c-0.579,1.988-0.463,4.378-0.463,4.378l-3.398-0.961c0,0-0.195-2.748,1.354-4.963c1.718-2.467,3.922-3.565,3.922-3.565
			L926.538,905.493z"/>
		<path fill-rule="evenodd" clip-rule="evenodd" fill="#C1494E" d="M921.531,907.987c-0.557-0.295-0.607-1.001-1.044-1.463
			c-0.436-0.476-0.548-0.191-1.545-0.191c-0.999,0-1.028-0.388-1.309-0.589c-0.285-0.207-0.42,0.626-0.42,0.626
			s0.184,0.696,1.256,0.746c1.064,0.051,1.04-0.378,1.496,0.409c0.461,0.796,1.37,1.399,1.37,1.399S922.089,908.289,921.531,907.987
			"/>
		<path fill="#C1494E" d="M763.623,923.404c0,1.151-0.88,1.908-2.105,1.908c-1.154,0-1.827-0.516-2.092-1.433
			c-0.787,1.055-2.408,1.57-3.836,1.57c-4.218,0-6.893-3.207-6.893-6.461c0-3.354,2.238-6.812,6.752-6.812
			c1.449,0,2.874,0.415,3.977,1.199v-4.688c0-1.144,0.873-1.9,2.092-1.9c1.225,0,2.105,0.757,2.105,1.9V923.404z M756.145,915.338
			c-2.181,0-3.262,1.874-3.262,3.501c0,1.6,1.081,3.472,3.262,3.472c2.292,0,3.28-1.912,3.28-3.592
			C759.425,917.052,758.381,915.338,756.145,915.338"/>
		<path fill="#C1494E" d="M769.372,919.967c0.302,1.687,2.01,2.483,3.971,2.483c2.143,0,3.623-1.379,4.737-1.379
			c0.897,0,1.705,0.729,1.705,1.482c0,1.48-3.714,2.896-6.832,2.896c-4.715,0-7.851-2.813-7.851-6.611
			c0-3.487,3.081-6.661,7.5-6.661c4.538,0,7.537,3.388,7.537,6.26c0,1.024-0.554,1.529-1.831,1.529H769.372z M775.952,917.671
			c-0.229-1.507-1.395-2.621-3.35-2.621c-1.857,0-3.115,1.165-3.313,2.621H775.952z"/>
		<path fill="#C1494E" d="M790.442,916.191c-0.787,0-2.387-1.011-3.755-1.011c-0.754,0-1.427,0.291-1.427,0.967
			c0,1.6,7.273,1.359,7.273,5.275c0,2.29-2.353,4.027-5.969,4.027c-2.353,0-5.838-1.089-5.838-2.642c0-0.522,0.634-1.52,1.798-1.52
			c1.629,0,2.356,1.161,4.328,1.161c1.284,0,1.665-0.338,1.665-0.984c0-1.576-7.27-1.335-7.27-5.274
			c0-2.387,2.357-4.014,5.673-4.014c2.061,0,5.231,0.79,5.231,2.49C792.152,915.448,791.429,916.191,790.442,916.191"/>
		<path fill="#C1494E" d="M798.409,909.051c0,1.079-1.044,1.985-2.357,1.985c-1.253,0-2.356-0.934-2.356-1.985
			c0-0.977,1.103-1.884,2.356-1.884C797.3,907.167,798.409,908.044,798.409,909.051 M793.957,914.24
			c0-1.148,0.873-1.919,2.096-1.919c1.219,0,2.092,0.771,2.092,1.919v9.164c0,1.154-0.873,1.908-2.092,1.908
			c-1.223,0-2.096-0.754-2.096-1.908V914.24z"/>
		<path fill="#C1494E" d="M814.787,924.168c0,4.134-3.291,6.219-8.061,6.219c-1.715,0-6.605-0.7-6.605-2.584
			c0-0.643,0.873-1.506,1.696-1.506c1.333,0,2.817,1.067,5.231,1.067c2.041,0,3.547-0.965,3.547-2.721v-0.811h-0.057
			c-0.869,1.051-2.302,1.617-4.218,1.617c-4.389,0-6.457-3.164-6.457-6.585c0-3.46,2.667-6.688,6.889-6.688
			c1.433,0,3.05,0.525,3.843,1.573c0.265-0.9,0.927-1.43,2.096-1.43c1.219,0,2.096,0.771,2.096,1.919V924.168z M807.305,915.338
			c-2.177,0-3.251,1.857-3.251,3.457c0,1.841,1.074,3.516,3.251,3.516c2.236,0,3.291-1.729,3.291-3.401
			C810.596,917.246,809.609,915.338,807.305,915.338"/>
		<path fill="#C1494E" d="M817.172,914.24c0-1.148,0.869-1.919,2.092-1.919c1.072,0,1.777,0.476,1.916,1.275
			c0.82-0.937,2.063-1.419,4.042-1.419c3.289,0,5.73,1.721,5.73,4.629v6.598c0,1.154-0.862,1.908-2.087,1.908
			c-1.215,0-2.1-0.754-2.1-1.908v-5.991c0-1.601-1.215-2.363-2.732-2.363c-1.72,0-2.674,1.027-2.674,2.363v5.991
			c0,1.154-0.877,1.908-2.096,1.908c-1.223,0-2.092-0.754-2.092-1.908V914.24z"/>
		<path fill="#C1494E" d="M836.714,919.967c0.293,1.687,2.006,2.483,3.959,2.483c2.155,0,3.635-1.379,4.737-1.379
			c0.905,0,1.725,0.729,1.725,1.482c0,1.48-3.73,2.896-6.843,2.896c-4.715,0-7.851-2.813-7.851-6.611c0-3.487,3.08-6.661,7.5-6.661
			c4.542,0,7.537,3.388,7.537,6.26c0,1.024-0.555,1.529-1.831,1.529H836.714z M843.29,917.671c-0.232-1.507-1.398-2.621-3.349-2.621
			c-1.861,0-3.115,1.165-3.313,2.621H843.29z"/>
		<path fill="#C1494E" d="M863.272,923.404c0,1.151-0.873,1.908-2.1,1.908c-1.158,0-1.819-0.516-2.088-1.433
			c-0.793,1.055-2.414,1.57-3.843,1.57c-4.213,0-6.888-3.207-6.888-6.461c0-3.354,2.238-6.812,6.752-6.812
			c1.445,0,2.874,0.415,3.979,1.199v-4.688c0-1.144,0.873-1.9,2.088-1.9c1.227,0,2.1,0.757,2.1,1.9V923.404z M855.799,915.338
			c-2.181,0-3.26,1.874-3.26,3.501c0,1.6,1.079,3.472,3.26,3.472c2.292,0,3.286-1.912,3.286-3.592
			C859.085,917.052,858.035,915.338,855.799,915.338"/>
		<path fill="#C1494E" d="M873.449,908.689c0-1.144,0.881-1.9,2.104-1.9s2.092,0.757,2.092,1.9v4.688
			c1.109-0.784,2.527-1.199,3.983-1.199c4.51,0,6.746,3.458,6.746,6.814c0,3.251-2.664,6.458-6.892,6.458
			c-1.423,0-3.054-0.516-3.836-1.57c-0.265,0.917-0.932,1.433-2.092,1.433c-1.223,0-2.104-0.754-2.104-1.908V908.689z
			 M880.931,922.311c2.181,0,3.253-1.872,3.253-3.472c0-1.627-1.072-3.501-3.253-3.501c-2.239,0-3.286,1.714-3.286,3.381
			C877.645,920.398,878.637,922.311,880.931,922.311"/>
		<path fill="#C1494E" d="M889.105,914.685c-0.12-0.258-0.21-0.525-0.21-0.88c0-0.867,1.107-1.483,1.984-1.483
			c1.011,0,1.741,0.459,2.096,1.216l2.87,6.48l3.09-6.48c0.351-0.757,1.072-1.216,2.096-1.216c0.873,0,1.971,0.616,1.971,1.483
			c0,0.354-0.055,0.622-0.2,0.88l-7.011,14.333c-0.338,0.714-0.989,1.369-1.977,1.369c-1.425,0-2.177-0.749-2.177-1.479
			c0-0.349,0.118-0.699,0.252-1.011l1.839-3.729L889.105,914.685z"/>
	</g>
</g>
<rect x="977" y="811" fill="#6E5737" width="8" height="69"/>
<ellipse fill="#BFC48A" cx="981.795" cy="829.855" rx="46.182" ry="37.914"/>
<rect x="280" y="811" fill="#6E5737" width="8" height="69"/>
<rect x="323" y="833" fill="#6E5737" width="7" height="47"/>
<rect x="453" y="859" fill="#6E5737" width="8" height="21"/>
<rect x="495" y="811" fill="#6E5737" width="8" height="69"/>
<path fill="#497D61" d="M530.895,828.34c0,15.076-14.887,27.298-33.252,27.298c-18.364,0-33.251-12.222-33.251-27.298
	c0-15.078,14.887-57.634,33.251-57.634C516.008,770.706,530.895,813.262,530.895,828.34z"/>
<rect x="937" y="811" fill="#6E5737" width="6" height="69"/>
<path fill="#497D61" d="M974.405,823.789c0,15.076-14.888,27.299-33.251,27.299c-18.366,0-33.253-12.223-33.253-27.299
	c0-15.078,14.887-57.631,33.253-57.631C959.518,766.158,974.405,808.711,974.405,823.789z"/>
<rect x="831" y="811" fill="#6E5737" width="6" height="69"/>
<path fill="#569C77" d="M859.991,840.696c0,12.284-12.129,22.242-27.093,22.242c-14.962,0-27.092-9.958-27.092-22.242
	c0-12.285,12.13-46.957,27.092-46.957C847.862,793.739,859.991,828.411,859.991,840.696z"/>
<ellipse fill="#BFC48A" cx="283.204" cy="794.973" rx="42.489" ry="34.883"/>
<rect x="666" y="811" fill="#6E5737" width="8" height="69"/>
<ellipse fill="#BFC48A" cx="669.927" cy="817.723" rx="53.573" ry="43.982"/>
<ellipse fill="#89A87F" cx="457.002" cy="807.864" rx="24.015" ry="55.356"/>
<rect x="1697" y="811" fill="#6E5737" width="6" height="69"/>
<rect x="1605" y="811" fill="#6E5737" width="9" height="69"/>
<ellipse fill="#BFC48A" cx="1700.558" cy="828.34" rx="33.251" ry="27.298"/>
<rect x="1442" y="822" fill="#6E5737" width="9" height="58"/>
<ellipse fill="#BFC48A" cx="1447.25" cy="838.956" rx="33.253" ry="27.3"/>
<path fill="#89A87F" d="M1627.477,819.999c0,23.514-8.272,42.581-18.474,42.581s-18.474-19.067-18.474-42.581
	c0-23.519,8.272-42.584,18.474-42.584S1627.477,796.48,1627.477,819.999z"/>
<g>
	<path fill="#C1494E" d="M1146.824,878.689c0-44.115,43.562-80.277,97.29-80.277c53.733,0,97.296,36.365,97.296,80.478
		c0,0.17-0.015-0.89-0.017,1.11h25.861c0.002-2,0.017-1.143,0.017-1.311c0-55.844-55.142-101.512-123.157-101.512
		c-68.013,0-123.151,45.871-123.151,101.712c0,0.17,0.014-0.89,0.014,1.11h25.861C1146.838,878,1146.824,878.857,1146.824,878.689z"
		/>
	<path fill="#FFB157" d="M1244.114,798.007c-53.729,0-97.29,36.567-97.29,80.683c0,0.168,0.014-0.689,0.014,1.311h25.863
		c0-2-0.014-1.143-0.014-1.311c0-32.387,31.98-59.046,71.427-59.046c39.451,0,71.432,26.86,71.432,59.246
		c0,0.17-0.014-0.89-0.016,1.11h25.863c0.002-2,0.017-1.143,0.017-1.311C1341.41,834.574,1297.848,798.007,1244.114,798.007z"/>
	<path fill="#FCF262" d="M1199.779,878.689c0-20.104,19.85-36.803,44.335-36.803c24.49,0,44.34,16.901,44.34,37.003
		c0,0.17-0.013-0.89-0.017,1.11h27.093c0.002-2,0.016-1.143,0.016-1.311c0-32.387-31.98-59.046-71.432-59.046
		c-39.446,0-71.427,26.86-71.427,59.246c0,0.17,0.014-0.89,0.014,1.11h27.093C1199.792,878,1199.779,878.857,1199.779,878.689z"/>
</g>
<rect x="701" y="811" fill="#6E5737" width="7" height="69"/>
<ellipse fill="#569C77" cx="705.025" cy="790.422" rx="38.793" ry="31.851"/>
<ellipse fill="#569C77" cx="327.54" cy="819.24" rx="33.252" ry="27.298"/>
<rect x="1486" y="833" fill="#6E5737" width="6" height="47"/>
<ellipse fill="#569C77" cx="1489.739" cy="823.789" rx="39.501" ry="32.43"/>
<g>
	<g>
		<polygon fill="none" stroke="#6E5737" stroke-width="5" stroke-miterlimit="10" points="1046.5,463.551 1278.296,193.5 
			1046.5,193.5 		"/>
		<polygon fill="none" stroke="#6E5737" stroke-width="5" stroke-miterlimit="10" points="1108.5,462.961 1504.092,193.5 
			1108.5,193.5 		"/>
	</g>
	<g>
		<polygon fill="none" stroke="#6E5737" stroke-width="5" stroke-miterlimit="10" points="914.5,463.551 683.705,193.5 914.5,193.5 
					"/>
		<polygon fill="none" stroke="#6E5737" stroke-width="5" stroke-miterlimit="10" points="852.5,462.961 457.908,193.5 852.5,193.5 
					"/>
	</g>
</g>
<g>
	<path fill="#8A6D45" d="M1119,650.265c0,14.441-14.261,25.735-31.852,25.735H874.852C857.26,676,843,664.706,843,650.265V475.973
		C843,461.531,857.26,450,874.852,450h212.297c17.591,0,31.852,11.531,31.852,25.973V650.265z"/>
	<g>
		<path fill="#A38152" d="M843,477.461v173.41C843,665.311,855.864,676,873.456,676h211.224c8.793,0,16.76-2.418,22.521-7.15
			L851.632,458.715C845.866,463.447,843,470.241,843,477.461z"/>
	</g>
	<path fill="#6E5737" d="M1111.803,491c0,19-19.126,34.998-42.63,34.998c-23.509,0-42.633-15.998-42.633-34.998h-0.007h-4.758
		h-0.006c0,19-19.122,34.998-42.629,34.998c-23.509,0-42.632-15.998-42.632-34.998h-0.005h-4.759h-0.004
		c0,19-19.125,34.998-42.631,34.998S846.477,510,846.477,491h-4.763c0,22,21.261,39.084,47.395,39.084
		c20.955,0,38.774-11.104,45.016-26.629c6.239,15.524,24.06,26.759,45.017,26.759c20.953,0,38.776-11.169,45.014-26.691
		c6.24,15.522,24.062,26.549,45.019,26.549c26.132,0,47.393-17.071,47.393-39.071H1111.803z"/>
	<path fill="#6E5737" d="M1129,483.159c0,6.028-5.742,10.841-13.087,10.841H844c-7.345,0-13-4.813-13-10.841v-22.728
		c0-6.027,5.655-10.432,13-10.432h271.914c7.345,0,13.087,4.404,13.087,10.432V483.159z"/>
	<g>
		<rect x="1021" y="504" fill="#6E5737" width="6" height="50"/>
	</g>
	<path fill="#FCF262" d="M1023.857,547.139c-10.064,0-17.553,17.469-21.516,33.056c-2.088,8.188-3.196,15.857-3.196,20.202
		c0,12.604,9.356,25.36,24.712,25.36c9.255,0,16.324-4.638,20.489-11.078c2.742-4.246,4.226-9.275,4.226-14.282
		C1048.572,587.79,1039.214,547.139,1023.857,547.139z"/>
	<g>
		<path fill="#FCF58D" d="M1023.857,625.757c9.255,0,16.324-4.638,20.489-11.078l-42.005-34.484
			c-2.088,8.188-3.196,15.857-3.196,20.202C999.146,613,1008.502,625.757,1023.857,625.757z"/>
	</g>
</g>
<rect x="146" y="-425" fill="none" width="1670" height="1305"/>
<g>
	<path fill="none" d="M394.169-332.212c-1.431-20.819-2.169-41.884-2.169-63.164c0,0.001,0,0.002,0,0.002
		C392-374.093,392.738-353.028,394.169-332.212z"/>
	<path fill="#C1494E" d="M979.695,336.406c0.013,0,0.024,0,0.039,0c-0.099,0-0.194-0.001-0.292-0.001c0,0,0.002,0,0.004,0
		C979.528,336.405,979.611,336.406,979.695,336.406z"/>
	<path fill="#C1494E" d="M190.451-395.319c0-9.758,0.212-19.681,0.62-29.681H146v286.307C272.438,138.6,597.742,337,979.318,337
		c-0.019,0-0.037,0-0.056,0C543.432,337,190.451,8.297,190.451-395.319z"/>
	<path fill="#C1494E" d="M980.14,336.401c0.29,0,0.575,0.005,0.86,0.005c-0.281,0-0.561-0.005-0.842-0.005
		C980.152,336.401,980.147,336.401,980.14,336.401z"/>
	<path fill="#C1494E" d="M1770.93-425c0.407,10,0.619,19.62,0.619,29.377c0,404.153-353.943,731.907-790.549,731.907
		c382.302,0,708.376-197.474,835-475.047V-425H1770.93z"/>
	<path fill="#E0555B" d="M980.158,336.401c0.281,0,0.561,0.005,0.842,0.005c-0.273,0-0.546-0.005-0.819-0.005
		C980.172,336.401,980.166,336.401,980.158,336.401z"/>
	<path fill="#E0555B" d="M1771.549-395.623c0-9.757-0.212-19.377-0.619-29.377h-104.049c0.354,10,0.538,19.62,0.538,29.377
		c0,404.153-307.321,731.786-686.419,731.786C1417.605,336.163,1771.549,8.531,1771.549-395.623z"/>
	<path fill="#E0555B" d="M979.471,336.405c0.058,0,0.112,0.001,0.168,0.001c0.018,0,0.036,0,0.057,0
		c-0.084,0-0.167-0.001-0.249-0.001C979.455,336.405,979.463,336.405,979.471,336.405z"/>
	<path fill="#E0555B" d="M979.263,336.403c-378.32-0.215-684.681-328.485-684.681-732.02c0-9.758,0.184-19.383,0.538-29.383H191.071
		c-0.408,10-0.62,19.624-0.62,29.382C190.451,7.998,543.432,336.188,979.263,336.403z"/>
	<path fill="#C1494E" d="M1667.419-395.623c0-9.757-0.184-19.377-0.538-29.377h-98.404c0.304,10,0.461,19.62,0.461,29.377
		c0,404.153-263.229,731.786-587.938,731.786C1360.098,336.163,1667.419,8.531,1667.419-395.623z"/>
	<path fill="#C1494E" d="M980.181,336.401c0.273,0,0.546,0.005,0.819,0.005c-0.265,0-0.528-0.006-0.793-0.006
		C980.197,336.4,980.188,336.401,980.181,336.401z"/>
	<path fill="#C1494E" d="M979.557,336.406c0.028,0,0.053,0,0.082,0c-0.056,0-0.11-0.001-0.168-0.001
		C979.5,336.405,979.528,336.406,979.557,336.406z"/>
	<path fill="#C1494E" d="M394.7-332.212c-1.431-20.816-2.7-41.881-2.7-63.162c0,0,0-0.001,0-0.002c0,0,0-0.003,0-0.003
		c0-9.757,1.22-19.621,1.524-29.621H295.12c-0.354,10-0.538,19.924-0.538,29.681C294.582,8.216,600.942,337,979.263,337
		c0.043,0,0.086,0,0.129,0c0.019,0,0.034,0,0.051,0c-1.691,0-3.645-0.337-5.328-0.363C669.493,332.449,420.245,39.672,394.7-332.212
		z"/>
	<path fill="#C1494E" d="M979.446,336.405c-0.002,0-0.004,0-0.004,0c-0.017,0-0.032,0-0.051,0
		C979.41,336.405,979.429,336.405,979.446,336.405z"/>
	<path fill="#C1494E" d="M979.392,336.405c-0.024,0-0.049,0-0.073,0c0.051,0,0.102,0,0.152,0c-0.008,0-0.016,0-0.024,0
		C979.429,336.405,979.41,336.405,979.392,336.405z"/>
	<path fill="#C1494E" d="M979.263,336.403c0.019,0,0.037,0.002,0.056,0.002c0.024,0,0.049,0,0.073,0
		C979.349,336.405,979.306,336.405,979.263,336.403z"/>
	<path fill="#E0555B" d="M503.825-395.623c0-9.757,0.127-19.377,0.374-29.377H393.524c-0.305,10-0.461,19.624-0.461,29.381
		c0,21.28,0.738,42.466,2.169,63.286c25.544,371.817,274.527,663.739,579.147,668.611c1.725,0.024,3.449,0.083,5.178,0.087
		c-0.049,0-0.1-0.11-0.15-0.11C716.59,334.936,503.825,7.715,503.825-395.623z"/>
	<path fill="#E0555B" d="M395.232-332.212c25.544,371.884,274.527,664.364,579.147,668.55
		C669.759,331.466,420.776,39.605,395.232-332.212z"/>
	<path fill="#E0555B" d="M392-395.376c0-9.757,0.157-19.474,0.461-29.138c-0.305,9.665-0.461,19.377-0.461,29.134
		C392-395.379,392-395.377,392-395.376z"/>
	<path fill="#E0555B" d="M1568.938-395.623c0-9.757-0.157-19.377-0.461-29.377H1457.8c0.247,10,0.375,19.62,0.375,29.377
		c0,404.153-213.638,731.786-477.175,731.786C1305.708,336.163,1568.938,8.531,1568.938-395.623z"/>
	<path fill="#E0555B" d="M980.207,336.4c0.265,0,0.528,0.006,0.793,0.006c-0.253,0-0.502-0.006-0.754-0.006
		C980.233,336.4,980.222,336.4,980.207,336.4z"/>
	<path fill="#C1494E" d="M980.246,336.4c0.252,0,0.501,0.006,0.754,0.006c-0.236,0-0.473-0.008-0.709-0.008
		C980.274,336.398,980.262,336.4,980.246,336.4z"/>
	<path fill="#C1494E" d="M1458.175-395.623c0-9.757-0.128-19.377-0.375-29.377h-90.553c0.199,10,0.304,19.62,0.304,29.377
		c0,404.153-173.065,731.786-386.551,731.786C1244.537,336.163,1458.175,8.531,1458.175-395.623z"/>
	<path fill="#C1494E" d="M979.406,336.392c-0.08-0.001-0.159-0.005-0.239-0.007C766.514,334.513,594.45,7.373,594.45-395.623
		c0-9.757,0.104-19.377,0.304-29.377h-90.555c-0.247,10-0.374,19.62-0.374,29.377C503.825,7.715,716.59,335.073,979.406,336.392z"/>
	<path fill="#E0555B" d="M1367.551-395.623c0-9.757-0.104-19.377-0.304-29.377h-102.371c0.146,10,0.222,19.62,0.222,29.377
		c0,404.153-127.194,731.786-284.098,731.786C1194.485,336.163,1367.551,8.531,1367.551-395.623z"/>
	<path fill="#E0555B" d="M980.291,336.398c0.236,0,0.473,0.008,0.709,0.008c-0.212,0-0.426-0.01-0.64-0.01
		C980.338,336.396,980.315,336.398,980.291,336.398z"/>
	<path fill="#E0555B" d="M979.167,336.385c-0.244-0.005-0.487-0.01-0.731-0.021C822.707,332.817,696.902,6.326,696.902-395.623
		c0-9.757,0.075-19.377,0.223-29.377H594.753c-0.2,10-0.304,19.62-0.304,29.377C594.45,7.373,766.514,334.513,979.167,336.385z"/>
	<path fill="#C1494E" d="M1265.098-395.623c0-9.757-0.075-19.377-0.222-29.377h-114.319c0.09,10,0.135,19.62,0.135,29.377
		c0,403.604-76.223,731.007-170.331,731.897c0.214,0,0.428-0.051,0.64-0.051C1137.903,336.224,1265.098,8.531,1265.098-395.623z"/>
	<path fill="#C1494E" d="M978.436,336.364c-93.578-3.547-169.173-330.038-169.173-731.987c0-9.757,0.046-19.377,0.135-29.377
		H697.125c-0.148,10-0.223,19.62-0.223,29.377C696.902,6.326,822.707,332.817,978.436,336.364z"/>
	<path fill="#E0555B" d="M980.05,336.401c-0.024,0-0.049,0.005-0.073,0.005c0.055,0,0.11-0.005,0.163-0.005
		c-0.026,0-0.055,0-0.081,0C980.054,336.401,980.052,336.401,980.05,336.401z"/>
	<path fill="#E0555B" d="M979.734,336.4c0.081,0,0.161,0.006,0.242,0.006c-0.028,0-0.057-0.005-0.086-0.005
		C979.838,336.401,979.787,336.4,979.734,336.4z"/>
	<path fill="#E0555B" d="M979.881,336.4c-0.063,0-0.124,0-0.186-0.001c0.013,0.001,0.024,0.001,0.039,0.001
		c0.053,0,0.104,0.001,0.156,0.001C979.887,336.401,979.885,336.4,979.881,336.4z"/>
	<path fill="#E0555B" d="M979.866,336.398c-0.008,0-0.016,0-0.024,0c-0.012,0-0.024,0-0.036,0c-0.056,0-0.11,0-0.167-0.002
		c0.018,0.002,0.036,0.002,0.057,0.002c0.062,0.001,0.122,0.001,0.186,0.001C979.875,336.4,979.871,336.4,979.866,336.398z"/>
	<path fill="#E0555B" d="M980.181,336.401c-0.037,0-0.073-0.001-0.112-0.001c-0.002,0-0.006,0.001-0.01,0.001
		c0.026,0,0.055,0,0.081,0c0.008,0,0.013,0,0.019,0C980.166,336.401,980.172,336.401,980.181,336.401z"/>
	<path fill="#E0555B" d="M979.557,336.395c0.028,0,0.053,0.001,0.082,0.001c0.057,0.002,0.111,0.002,0.167,0.002
		C979.724,336.396,979.641,336.395,979.557,336.395z"/>
	<path fill="#E0555B" d="M980.068,336.4c0.039,0,0.075,0.001,0.112,0.001c0.008,0,0.017-0.001,0.026-0.001c-0.043,0-0.084,0-0.124,0
		C980.078,336.4,980.074,336.4,980.068,336.4z"/>
	<path fill="#E0555B" d="M979.842,336.398c-0.012-0.002-0.024-0.003-0.034-0.003c-0.135,0-0.268-0.003-0.401-0.003
		c0.051,0,0.102,0.003,0.15,0.003c0.084,0,0.167,0.001,0.249,0.003C979.817,336.398,979.83,336.398,979.842,336.398z"/>
	<path fill="#E0555B" d="M979.806,336.398c0.012,0,0.024,0,0.036,0l0,0C979.83,336.398,979.817,336.398,979.806,336.398z"/>
	<path fill="#E0555B" d="M980.083,336.4c0.04,0,0.081,0,0.124,0c0.015,0,0.026,0,0.039,0c-0.047,0-0.094-0.001-0.143-0.001
		C980.097,336.398,980.091,336.4,980.083,336.4z"/>
	<path fill="#E0555B" d="M979.167,336.385c0.08,0.001,0.159,0.005,0.239,0.007c0.134,0,0.267,0.003,0.401,0.003
		c-0.017,0-0.033-0.001-0.049-0.003C979.561,336.39,979.365,336.386,979.167,336.385z"/>
	<path fill="#E0555B" d="M980.104,336.398c0.049,0,0.096,0.001,0.143,0.001c0.016,0,0.028-0.001,0.045-0.001
		c-0.054,0-0.108-0.002-0.161-0.002C980.121,336.396,980.111,336.398,980.104,336.398z"/>
	<path fill="#E0555B" d="M979.654,336.385c-0.405-0.005-0.812-0.01-1.219-0.021c0.244,0.011,0.487,0.016,0.731,0.021
		c0.198,0.001,0.394,0.005,0.592,0.007C979.724,336.39,979.691,336.386,979.654,336.385z"/>
	<path fill="#E0555B" d="M980.13,336.396c0.053,0,0.107,0.002,0.161,0.002c0.024,0,0.047-0.002,0.069-0.002
		c-0.062,0-0.123-0.003-0.186-0.003C980.16,336.394,980.144,336.396,980.13,336.396z"/>
	<path fill="#E0555B" d="M980.175,336.394c0.063,0,0.124,0.003,0.186,0.003c94.108-0.891,170.331-328.415,170.331-732.019
		c0-9.757-0.045-19.377-0.135-29.377h-102.771c0.034,10,0.053,19.62,0.053,29.377C1047.839,7.82,1017.562,335.245,980.175,336.394z"
		/>
	<path fill="#E0555B" d="M978.436,336.364c0.407,0.011,0.813,0.016,1.219,0.021c-37.332-1.868-67.542-329.01-67.542-732.007
		c0-9.757,0.019-19.377,0.053-29.377H809.397c-0.089,10-0.135,19.62-0.135,29.377C809.262,6.326,884.858,332.817,978.436,336.364z"
		/>
	<path fill="#C1494E" d="M979.891,336.401c0.029,0,0.058,0.005,0.086,0.005c0.024,0,0.049-0.005,0.073-0.005
		C979.997,336.401,979.944,336.401,979.891,336.401z"/>
	<path fill="#C1494E" d="M979.891,336.401c0.054,0,0.106,0,0.159,0c0.002,0,0.004,0,0.009,0c-0.06,0-0.119-0.001-0.178-0.001
		C979.885,336.4,979.887,336.401,979.891,336.401z"/>
	<path fill="#C1494E" d="M979.866,336.398c0.005,0.001,0.009,0.001,0.015,0.001c0.059,0,0.118,0.001,0.178,0.001
		c0.004,0,0.008-0.001,0.01-0.001c-0.026,0-0.055,0-0.082,0C979.946,336.398,979.907,336.398,979.866,336.398z"/>
	<path fill="#C1494E" d="M979.986,336.4c0.027,0,0.056,0,0.082,0c0.006,0,0.01,0,0.015,0C980.05,336.4,980.018,336.4,979.986,336.4z
		"/>
	<path fill="#C1494E" d="M979.986,336.4c0.031,0,0.063,0,0.097,0c0.008,0,0.014-0.001,0.021-0.001c-0.099,0-0.196-0.003-0.296-0.003
		c0.01,0,0.022,0.001,0.034,0.003c0.009,0,0.015,0,0.022,0C979.905,336.4,979.946,336.4,979.986,336.4z"/>
	<path fill="#C1494E" d="M979.842,336.398L979.842,336.398c0.009,0,0.017,0,0.022,0
		C979.856,336.398,979.851,336.398,979.842,336.398z"/>
	<path fill="#C1494E" d="M979.842,336.398c0.009,0,0.017,0,0.024,0h-0.002C979.858,336.398,979.851,336.398,979.842,336.398z"/>
	<path fill="#C1494E" d="M979.864,336.398h0.002c0.041,0,0.08,0,0.12,0.001C979.946,336.4,979.905,336.4,979.864,336.398z"/>
	<path fill="#C1494E" d="M980.13,336.396c-0.125-0.001-0.247-0.003-0.371-0.005c0.016,0.002,0.032,0.003,0.049,0.003
		c0.1,0,0.197,0.003,0.296,0.003C980.111,336.398,980.121,336.396,980.13,336.396z"/>
	<path fill="#C1494E" d="M980.13,336.396c0.014,0,0.03-0.003,0.045-0.003c-0.174-0.002-0.347-0.007-0.521-0.009
		c0.037,0.001,0.069,0.005,0.104,0.007C979.883,336.394,980.005,336.395,980.13,336.396z"/>
	<path fill="#C1494E" d="M979.654,336.385c0.174,0.001,0.347,0.007,0.521,0.009c37.387-1.148,67.664-328.573,67.664-732.016
		c0-9.757-0.019-19.377-0.053-29.377H912.166c-0.035,10-0.053,19.62-0.053,29.377C912.112,7.375,942.322,334.517,979.654,336.385z"
		/>
</g>
</svg>
