<?xml version="1.0" encoding="utf-8"?>
<!-- Generator: Adobe Illustrator 16.0.0, SVG Export Plug-In . SVG Version: 6.00 Build 0)  -->
<!DOCTYPE svg PUBLIC "-//W3C//DTD SVG 1.1//EN" "http://www.w3.org/Graphics/SVG/1.1/DTD/svg11.dtd">
<svg version="1.1" id="Calque_1" xmlns="http://www.w3.org/2000/svg" xmlns:xlink="http://www.w3.org/1999/xlink" x="0px" y="0px"
	 width="1920px" height="880px" viewBox="0 0 1920 880" enable-background="new 0 0 1920 880" xml:space="preserve">
<rect x="-36" y="-29" fill="#17576B" width="1960" height="933"/>
<g>
	<rect x="555.66" y="-97.088" fill="none" width="721.407" height="721.406"/>
	<path fill="#E57373" d="M1045.43,442.652c-2.94,0-5.813,0.189-8.656,0.491h-21.997c2.774-1.674,6.131-3.265,10.286-4.479
		c15.165-4.45,51.96-6.945,87.619,26.889c9.31,9.128,19.352-2.068,6.549-14.315c-32.396-28.799-72.979-34.202-98.941-26.239
		c-15.121,4.6-23.242,13.325-26.816,18.129h-3.266l29.674-51.332c0,0,20.509,0,25.549,0c11.39-5.838,4.573-14.114,0-14.441
		c-2.504-0.084-44.107,0-47.637,0c-12.172,2.639-5.964,14.444-0.122,14.456c2.068-0.232,5.545,0,5.545,0l-63.043,109.087
		c-0.399-0.022-0.761-0.127-1.161-0.127c-0.293,0-0.565,0.082-0.836,0.098l-4.579-24.938c0,0,4.926,0,5.422,0
		c3.748-3.075,1.237-7.001,0-7.225c-0.644,0.051-18.25,0.004-20.082,0c-3.92,1.273-2.186,7.253,0,7.225c2.186-0.027,7.33,0,7.33,0
		l4.873,26.635c-2.902,1.75-3.997,2.906-4.849,4.428c0,0-18.472-31.817-78.561-71.137c1.589-3.381,16.515-42.387,29.511-73.875
		c3.179-5.483,5.484-6.258,9.239-6.139l0.015,4.746c6.813,0.296,16.611,0.056,31.438,0.044c0,0,12.178-10.397,0.417-20.133
		c-14.148,0.094-21.33-0.04-31.523,0.033l-0.029,3.803c-15.944,0-21.398,15.104-21.398,15.104
		c-10.205,22.73-17.475,46.038-29.051,71.436c-31.363-11.953-60.328-6.728-65.414-6.457c-14.24,2.068-19.838,13.875-7.485,13.205
		c47.404-6.633,66.647,6.404,66.647,6.404s-2.028,4.095-3.039,6.122c-10.211-4.772-21.545-7.518-33.521-7.518
		c-43.828,0.007-79.481,35.668-79.481,79.496c0,43.837,35.662,79.49,79.481,79.49c43.829,0,79.49-35.653,79.49-79.49
		c0-26.634-13.234-50.191-33.392-64.626c1.237-2.458,2.481-4.939,3.71-7.442c6.088,2.35,14.75,10.361,14.75,10.361
		s27.849,23.664,23.973,61.716c-1.722,9.26,8.623,13.276,11.178,0.255c1.461-11.088-0.365-31.766-6.937-42.232
		c0,0,22.149,16.064,34.226,37.203c-0.27,13.183,8.174,20.852,18.498,20.852c6.696,0,12.549-3.559,15.844-8.854h11.469
		c3.682,40.45,37.736,72.265,79.137,72.265c43.82,0,79.459-35.653,79.459-79.488C1124.889,478.314,1089.235,442.652,1045.43,442.652
		z M858.542,522.136c0,35.865-29.176,65.04-65.033,65.04s-65.041-29.168-65.041-65.04c0-35.857,29.176-65.026,65.041-65.026
		c9.577,0,18.649,2.127,26.846,5.859c-16.658,31.046-32.516,54.642-32.833,55.117l11.975,8.106
		c1.327-1.984,16.862-25.104,33.323-55.735C848.422,482.356,858.542,501.059,858.542,522.136z M1037.745,457.599h0.453v57.319
		h-57.379C984.145,484.974,1007.869,461.136,1037.745,457.599z M957.072,514.918c-0.687-2.684-1.952-5.127-3.65-7.224l30.256-50.096
		h15.541c-18.256,13.114-30.767,33.717-32.901,57.319H957.072z M1045.43,587.176c-33.428,0-61.014-25.338-64.604-57.809h71.82
		v-71.82c32.479,3.604,57.81,31.189,57.81,64.589C1110.456,558.008,1081.279,587.176,1045.43,587.176z"/>
	<path fill="#E57373" d="M1257.447,238.446c45.135,46.563,33.669,131.857-100.425,160.41c0-58.755-103.165-81.547-234.323-81.547
		c-140.61,0-240.334,21.618-240.334,83.169c-134.542-27.742-142.26-122.208-88.259-169.443
		c65.719-57.497,92.538,38.089,327.586,38.089C1135.852,269.125,1185.379,164.114,1257.447,238.446z"/>
	<g>
		<path fill="#E57373" d="M916.356,254.267c106.241,0,223.864-52.771,223.864-52.771v-40.382
			c0-92.482-58.364-186.054-223.696-186.054c-173.021,0-223.751,96.452-223.751,186.054v42.311
			C692.773,203.425,814.702,254.267,916.356,254.267z"/>
	</g>
	<polygon fill="#E57373" points="722,524.26 687.947,524.551 687.593,509 722,509 	"/>
	<rect x="1113" y="509" fill="#E57373" width="34" height="15"/>
	<g>
		<g>
			
				<rect x="688.79" y="507.433" transform="matrix(0.0019 1 -1 0.0019 1199.5576 -181.2556)" fill="#E57373" width="3.58" height="5.728"/>
		</g>
		<g>
			
				<rect x="688.163" y="749.045" transform="matrix(-1 0.0019 -0.0019 -1 1383.4648 1503.9733)" fill="#E57373" width="5.729" height="7.18"/>
			
				<rect x="688.296" y="820.851" transform="matrix(-1 0.002 -0.002 -1 1384.006 1647.4652)" fill="#E57373" width="5.728" height="7.18"/>
			
				<rect x="688.27" y="806.489" transform="matrix(-1 0.002 -0.002 -1 1383.9233 1618.7427)" fill="#E57373" width="5.729" height="7.18"/>
			
				<rect x="688.349" y="849.572" transform="matrix(-1 0.002 -0.002 -1 1384.1707 1704.9094)" fill="#E57373" width="5.729" height="7.181"/>
			
				<rect x="688.243" y="792.127" transform="matrix(-1 0.0019 -0.0019 -1 1383.7053 1590.1392)" fill="#E57373" width="5.728" height="7.182"/>
			
				<rect x="688.375" y="863.934" transform="matrix(-1 0.002 -0.002 -1 1384.2523 1733.6318)" fill="#E57373" width="5.728" height="7.181"/>
			
				<rect x="688.19" y="763.405" transform="matrix(-1 0.0019 -0.0019 -1 1383.5455 1532.6938)" fill="#E57373" width="5.728" height="7.182"/>
			
				<rect x="688.216" y="777.766" transform="matrix(-1 0.0019 -0.0019 -1 1383.6252 1561.4165)" fill="#E57373" width="5.729" height="7.182"/>
			
				<rect x="688.323" y="835.212" transform="matrix(-1 0.002 -0.002 -1 1384.0886 1676.1877)" fill="#E57373" width="5.729" height="7.18"/>
			
				<rect x="688.402" y="878.294" transform="matrix(-1 0.002 -0.002 -1 1384.3345 1762.3535)" fill="#E57373" width="5.729" height="7.182"/>
			
				<rect x="688.561" y="964.461" transform="matrix(-1 0.002 -0.002 -1 1384.8286 1934.6851)" fill="#E57373" width="5.728" height="7.18"/>
			
				<rect x="688.508" y="935.738" transform="matrix(-1 0.0019 -0.0019 -1 1384.5049 1877.359)" fill="#E57373" width="5.728" height="7.182"/>
			
				<rect x="688.534" y="950.099" transform="matrix(-1 0.0019 -0.0019 -1 1384.5846 1906.0815)" fill="#E57373" width="5.729" height="7.182"/>
			
				<rect x="688.429" y="892.655" transform="matrix(-1 0.0019 -0.0019 -1 1384.2649 1791.1923)" fill="#E57373" width="5.728" height="7.181"/>
			
				<rect x="688.481" y="921.377" transform="matrix(-1 0.0019 -0.0019 -1 1384.4243 1848.6375)" fill="#E57373" width="5.729" height="7.181"/>
			
				<rect x="688.455" y="907.016" transform="matrix(-1 0.0019 -0.0019 -1 1384.3446 1819.9148)" fill="#E57373" width="5.729" height="7.181"/>
			
				<rect x="688.587" y="978.822" transform="matrix(-1 0.002 -0.002 -1 1384.9106 1963.4076)" fill="#E57373" width="5.729" height="7.18"/>
			
				<rect x="687.846" y="576.712" transform="matrix(-1 0.002 -0.002 -1 1382.6057 1159.1902)" fill="#E57373" width="5.729" height="7.181"/>
			
				<rect x="687.82" y="562.352" transform="matrix(-1 0.002 -0.002 -1 1382.5234 1130.4688)" fill="#E57373" width="5.728" height="7.18"/>
			
				<rect x="687.873" y="591.072" transform="matrix(-1 0.002 -0.002 -1 1382.6882 1187.9119)" fill="#E57373" width="5.728" height="7.182"/>
			
				<rect x="687.899" y="605.434" transform="matrix(-1 0.002 -0.002 -1 1382.7708 1216.6344)" fill="#E57373" width="5.729" height="7.182"/>
			
				<rect x="688.137" y="734.684" transform="matrix(-1 0.0019 -0.0019 -1 1383.3853 1475.2507)" fill="#E57373" width="5.729" height="7.18"/>
			
				<rect x="687.792" y="547.99" transform="matrix(-1 0.002 -0.002 -1 1382.4404 1101.7461)" fill="#E57373" width="5.729" height="7.18"/>
			
				<rect x="687.014" y="519.993" transform="matrix(0.0018 1 -1 0.0018 1212.2393 -168.6697)" fill="#E57373" width="7.18" height="5.728"/>
			
				<rect x="687.766" y="533.629" transform="matrix(-1 0.002 -0.002 -1 1382.3584 1073.0234)" fill="#E57373" width="5.729" height="7.18"/>
			
				<rect x="687.926" y="619.794" transform="matrix(-1 0.0019 -0.0019 -1 1382.7474 1245.4729)" fill="#E57373" width="5.728" height="7.181"/>
			
				<rect x="688.058" y="691.6" transform="matrix(-1 0.0019 -0.0019 -1 1383.1467 1389.085)" fill="#E57373" width="5.728" height="7.182"/>
			
				<rect x="687.952" y="634.156" transform="matrix(-1 0.0019 -0.0019 -1 1382.8262 1274.1956)" fill="#E57373" width="5.728" height="7.181"/>
			
				<rect x="688.111" y="720.323" transform="matrix(-1 0.0019 -0.0019 -1 1383.306 1446.5281)" fill="#E57373" width="5.729" height="7.18"/>
			
				<rect x="688.084" y="705.961" transform="matrix(-1 0.0019 -0.0019 -1 1383.2263 1417.8055)" fill="#E57373" width="5.729" height="7.18"/>
			
				<rect x="687.978" y="648.517" transform="matrix(-1 0.0019 -0.0019 -1 1382.9058 1302.9182)" fill="#E57373" width="5.729" height="7.181"/>
			
				<rect x="688.031" y="677.239" transform="matrix(-1 0.0019 -0.0019 -1 1383.0662 1360.3623)" fill="#E57373" width="5.729" height="7.182"/>
			
				<rect x="688.005" y="662.877" transform="matrix(-1 0.0019 -0.0019 -1 1382.9863 1331.6396)" fill="#E57373" width="5.728" height="7.182"/>
		</g>
	</g>
	<path fill="#17576B" d="M933.748,685.527c-4.818-11.797-26.329-55.763-82.773-66.037c-65.35-11.897-91.724,79.993-138.402,71.496
		c-28.007-5.099-44.786-18.896-52.228-30.995c0,0,1.634,96.989,122.999,119.083c36.659,6.674,103.935-1.816,143.63-56.329
		L933.748,685.527z"/>
	<g id="Layer_2">
		<path fill="#E57373" d="M803.941,764.238c33.35,0,91.711-16.674,116.723-66.697c25.012,50.023,83.374,66.697,116.722,66.697
			c108.385,0,125.059-75.035,125.059-75.035c-8.336,8.338-25.011,16.676-50.022,16.676c-41.688,0-50.023-75.035-108.385-75.035
			s-83.374,41.685-83.374,41.685s-25.012-41.685-83.373-41.685s-66.698,75.035-108.385,75.035c-25.012,0-41.687-8.338-50.024-16.676
			C678.881,689.203,695.556,764.238,803.941,764.238z"/>
	</g>
</g>
<g>
	<g>
		<path fill="#E57373" d="M735.275-83.6v-0.382c-0.515,0.596-1.023,1.075-1.527,1.447c-0.502,0.372-1.046,0.652-1.633,0.846
			c-0.589,0.193-1.227,0.288-1.922,0.288c-0.92,0-1.772-0.196-2.558-0.583c-0.782-0.396-1.46-0.948-2.031-1.669
			c-0.578-0.72-1.008-1.576-1.305-2.551c-0.297-0.975-0.445-2.029-0.445-3.167c0-2.403,0.59-4.275,1.764-5.618
			c1.17-1.341,2.717-2.014,4.63-2.014c1.109,0,2.042,0.191,2.804,0.572c0.76,0.382,1.498,0.962,2.222,1.754v-5.675
			c0-0.789,0.16-1.386,0.473-1.79c0.312-0.404,0.761-0.607,1.342-0.607c0.582,0,1.032,0.189,1.348,0.559
			c0.313,0.368,0.473,0.917,0.473,1.641v16.95c0,0.732-0.172,1.282-0.509,1.647c-0.337,0.369-0.776,0.552-1.312,0.552
			c-0.526,0-0.959-0.188-1.3-0.571C735.446-82.35,735.275-82.899,735.275-83.6z M727.715-89.244c0,1.043,0.159,1.929,0.487,2.66
			c0.323,0.729,0.766,1.286,1.326,1.654c0.563,0.373,1.18,0.558,1.849,0.558c0.674,0,1.29-0.175,1.852-0.525
			c0.557-0.357,1.004-0.896,1.34-1.621c0.327-0.73,0.495-1.638,0.495-2.726c0-1.024-0.168-1.903-0.495-2.644
			c-0.335-0.734-0.786-1.299-1.354-1.685c-0.571-0.392-1.192-0.584-1.867-0.584c-0.705,0-1.333,0.196-1.887,0.597
			c-0.554,0.403-0.984,0.973-1.287,1.72C727.866-91.097,727.715-90.23,727.715-89.244z"/>
		<path fill="#E57373" d="M753.496-88.273h-7.519c0.008,0.875,0.185,1.645,0.527,2.31c0.345,0.666,0.798,1.169,1.366,1.505
			c0.569,0.338,1.194,0.509,1.879,0.509c0.462,0,0.88-0.058,1.262-0.158c0.377-0.108,0.747-0.287,1.105-0.511
			c0.356-0.232,0.682-0.478,0.987-0.742c0.298-0.259,0.687-0.616,1.166-1.067c0.196-0.166,0.479-0.257,0.845-0.257
			c0.395,0,0.71,0.112,0.954,0.328c0.249,0.215,0.371,0.519,0.371,0.914c0,0.347-0.139,0.754-0.407,1.22
			c-0.277,0.463-0.685,0.912-1.236,1.337c-0.545,0.425-1.235,0.783-2.07,1.066c-0.829,0.278-1.784,0.421-2.864,0.421
			c-2.47,0-4.389-0.704-5.759-2.113c-1.371-1.408-2.054-3.316-2.054-5.731c0-1.134,0.169-2.193,0.507-3.164
			c0.338-0.969,0.828-1.804,1.477-2.498c0.649-0.689,1.446-1.227,2.394-1.602c0.948-0.366,2-0.551,3.155-0.551
			c1.502,0,2.789,0.314,3.863,0.949c1.077,0.637,1.879,1.453,2.417,2.458c0.534,1.004,0.803,2.029,0.803,3.07
			c0,0.965-0.28,1.594-0.833,1.884C755.28-88.415,754.501-88.273,753.496-88.273z M745.977-90.454h6.967
			c-0.092-1.316-0.447-2.296-1.063-2.948c-0.615-0.653-1.421-0.983-2.426-0.983c-0.958,0-1.745,0.332-2.359,0.995
			C746.483-92.729,746.108-91.748,745.977-90.454z"/>
		<path fill="#E57373" d="M772.277-86.428c0,1.059-0.257,1.969-0.775,2.725c-0.513,0.753-1.275,1.324-2.284,1.72
			c-1.008,0.388-2.242,0.583-3.682,0.583c-1.383,0-2.566-0.214-3.549-0.635c-0.989-0.421-1.713-0.951-2.185-1.587
			c-0.469-0.628-0.704-1.267-0.704-1.902c0-0.425,0.15-0.787,0.446-1.086c0.305-0.299,0.683-0.453,1.144-0.453
			c0.405,0,0.713,0.102,0.929,0.296c0.218,0.199,0.428,0.474,0.622,0.831c0.393,0.687,0.866,1.198,1.413,1.535
			c0.552,0.337,1.302,0.508,2.25,0.508c0.767,0,1.401-0.17,1.891-0.516c0.492-0.341,0.738-0.733,0.738-1.173
			c0-0.68-0.257-1.172-0.769-1.481c-0.511-0.306-1.353-0.604-2.523-0.884c-1.326-0.332-2.4-0.674-3.233-1.035
			c-0.828-0.364-1.494-0.839-1.992-1.431c-0.498-0.589-0.744-1.319-0.744-2.185c0-0.764,0.227-1.497,0.688-2.183
			c0.456-0.683,1.141-1.228,2.03-1.639c0.898-0.41,1.983-0.612,3.25-0.612c0.991,0,1.885,0.103,2.679,0.309
			c0.793,0.213,1.455,0.487,1.986,0.835c0.531,0.351,0.934,0.729,1.211,1.154c0.277,0.427,0.417,0.836,0.417,1.238
			c0,0.44-0.146,0.806-0.446,1.08c-0.292,0.287-0.715,0.424-1.257,0.424c-0.397,0-0.73-0.11-1.007-0.333
			c-0.277-0.228-0.595-0.568-0.953-1.011c-0.291-0.38-0.631-0.682-1.028-0.906c-0.397-0.225-0.929-0.337-1.603-0.337
			c-0.698,0-1.274,0.148-1.734,0.448c-0.46,0.295-0.691,0.66-0.691,1.101c0,0.407,0.171,0.736,0.509,0.994
			c0.335,0.257,0.792,0.469,1.366,0.641c0.566,0.168,1.358,0.377,2.364,0.618c1.194,0.292,2.166,0.638,2.924,1.041
			c0.755,0.407,1.326,0.882,1.715,1.432C772.083-87.762,772.277-87.132,772.277-86.428z"/>
		<path fill="#E57373" d="M777.474-98.817c-0.534,0-0.991-0.168-1.373-0.494c-0.379-0.327-0.568-0.793-0.568-1.393
			c0-0.545,0.193-0.997,0.584-1.347c0.386-0.353,0.839-0.526,1.356-0.526c0.495,0,0.938,0.155,1.323,0.474
			c0.386,0.322,0.579,0.788,0.579,1.398c0,0.587-0.188,1.053-0.563,1.386C778.437-98.985,777.99-98.817,777.474-98.817z
			 M779.376-94.851v11.112c0,0.771-0.185,1.351-0.551,1.747c-0.366,0.393-0.831,0.592-1.392,0.592c-0.563,0-1.025-0.204-1.373-0.607
			c-0.354-0.404-0.527-0.98-0.527-1.731v-10.997c0-0.762,0.173-1.335,0.527-1.719c0.348-0.384,0.81-0.579,1.373-0.579
			c0.561,0,1.025,0.194,1.392,0.579C779.191-96.07,779.376-95.53,779.376-94.851z"/>
		<path fill="#E57373" d="M797.481-94.214v11.162c0,1.281-0.134,2.376-0.406,3.296c-0.274,0.925-0.71,1.683-1.312,2.282
			c-0.599,0.6-1.388,1.048-2.361,1.341c-0.971,0.286-2.179,0.431-3.621,0.431c-1.325,0-2.508-0.182-3.551-0.553
			c-1.043-0.372-1.841-0.849-2.409-1.435c-0.562-0.589-0.842-1.19-0.842-1.813c0-0.466,0.16-0.851,0.479-1.147
			c0.319-0.295,0.702-0.446,1.155-0.446c0.558,0,1.053,0.252,1.475,0.747c0.208,0.256,0.421,0.512,0.642,0.769
			c0.218,0.256,0.467,0.479,0.73,0.663c0.267,0.182,0.59,0.317,0.965,0.408c0.375,0.088,0.81,0.136,1.295,0.136
			c0.995,0,1.771-0.136,2.319-0.418c0.55-0.275,0.932-0.663,1.155-1.158c0.221-0.503,0.347-1.034,0.385-1.604
			c0.041-0.563,0.067-1.476,0.086-2.737c-0.593,0.828-1.275,1.457-2.051,1.889c-0.772,0.429-1.695,0.646-2.767,0.646
			c-1.282,0-2.408-0.327-3.372-0.986c-0.965-0.656-1.699-1.575-2.217-2.759c-0.515-1.186-0.775-2.549-0.775-4.099
			c0-1.152,0.157-2.193,0.473-3.124c0.315-0.929,0.764-1.713,1.346-2.354c0.582-0.641,1.253-1.122,2.012-1.44
			c0.759-0.321,1.597-0.486,2.508-0.486c1.085,0,2.03,0.208,2.831,0.628c0.794,0.415,1.536,1.072,2.226,1.962v-0.518
			c0-0.664,0.163-1.183,0.49-1.549c0.327-0.368,0.75-0.552,1.267-0.552c0.741,0,1.23,0.246,1.477,0.729
			C797.358-95.823,797.481-95.128,797.481-94.214z M786.342-89.345c0,1.561,0.343,2.742,1.022,3.534c0.682,0.8,1.563,1.2,2.64,1.2
			c0.638,0,1.242-0.171,1.81-0.515c0.568-0.341,1.032-0.859,1.389-1.55c0.354-0.689,0.536-1.526,0.536-2.514
			c0-1.566-0.347-2.785-1.036-3.662c-0.689-0.873-1.599-1.306-2.726-1.306c-1.098,0-1.978,0.414-2.641,1.253
			C786.674-92.069,786.342-90.882,786.342-89.345z"/>
		<path fill="#E57373" d="M804.864-94.905v0.464c0.674-0.891,1.411-1.547,2.214-1.963c0.803-0.414,1.726-0.628,2.766-0.628
			c1.015,0,1.918,0.221,2.721,0.666c0.793,0.439,1.39,1.064,1.783,1.873c0.256,0.47,0.418,0.975,0.494,1.519
			c0.076,0.547,0.112,1.241,0.112,2.085v7.152c0,0.771-0.176,1.351-0.525,1.747c-0.35,0.393-0.814,0.592-1.372,0.592
			c-0.575,0-1.039-0.204-1.395-0.607c-0.358-0.404-0.534-0.98-0.534-1.731v-6.407c0-1.267-0.176-2.236-0.529-2.912
			c-0.355-0.668-1.054-1.004-2.106-1.004c-0.688,0-1.309,0.206-1.871,0.614c-0.565,0.404-0.979,0.966-1.245,1.681
			c-0.182,0.575-0.278,1.647-0.278,3.212v4.815c0,0.782-0.181,1.359-0.542,1.755c-0.362,0.388-0.832,0.583-1.401,0.583
			c-0.555,0-1.007-0.204-1.365-0.607c-0.358-0.404-0.534-0.98-0.534-1.731v-11.112c0-0.73,0.159-1.276,0.477-1.638
			c0.317-0.361,0.753-0.544,1.312-0.544c0.337,0,0.642,0.083,0.913,0.239c0.269,0.163,0.491,0.404,0.655,0.719
			C804.777-95.753,804.864-95.37,804.864-94.905z"/>
		<path fill="#E57373" d="M829.516-88.273h-7.521c0.011,0.875,0.185,1.645,0.528,2.31c0.343,0.666,0.8,1.169,1.365,1.505
			c0.569,0.338,1.197,0.509,1.882,0.509c0.458,0,0.881-0.058,1.258-0.158c0.379-0.108,0.747-0.287,1.108-0.511
			c0.355-0.232,0.685-0.478,0.984-0.742c0.299-0.259,0.688-0.616,1.167-1.067c0.199-0.166,0.481-0.257,0.842-0.257
			c0.398,0,0.713,0.112,0.962,0.328c0.243,0.215,0.365,0.519,0.365,0.914c0,0.347-0.133,0.754-0.408,1.22
			c-0.27,0.463-0.683,0.912-1.232,1.337c-0.548,0.425-1.239,0.783-2.07,1.066c-0.833,0.278-1.788,0.421-2.864,0.421
			c-2.471,0-4.389-0.704-5.759-2.113c-1.373-1.408-2.059-3.316-2.059-5.731c0-1.134,0.171-2.193,0.506-3.164
			c0.341-0.969,0.832-1.804,1.482-2.498c0.647-0.689,1.443-1.227,2.393-1.602c0.949-0.366,1.998-0.551,3.155-0.551
			c1.5,0,2.787,0.314,3.864,0.949c1.074,0.637,1.879,1.453,2.415,2.458c0.536,1.004,0.801,2.029,0.801,3.07
			c0,0.965-0.279,1.594-0.828,1.884C831.297-88.415,830.52-88.273,829.516-88.273z M821.995-90.454h6.97
			c-0.098-1.316-0.447-2.296-1.063-2.948c-0.613-0.653-1.427-0.983-2.428-0.983c-0.959,0-1.746,0.332-2.361,0.995
			C822.5-92.729,822.126-91.748,821.995-90.454z"/>
		<path fill="#E57373" d="M846.452-83.6v-0.382c-0.515,0.596-1.024,1.075-1.527,1.447c-0.5,0.372-1.049,0.652-1.63,0.846
			c-0.59,0.193-1.231,0.288-1.925,0.288c-0.92,0-1.769-0.196-2.555-0.583c-0.782-0.396-1.461-0.948-2.035-1.669
			c-0.57-0.72-1.004-1.576-1.3-2.551c-0.297-0.975-0.445-2.029-0.445-3.167c0-2.403,0.587-4.275,1.759-5.618
			c1.173-1.341,2.719-2.014,4.633-2.014c1.109,0,2.043,0.191,2.798,0.572c0.761,0.382,1.505,0.962,2.227,1.754v-5.675
			c0-0.789,0.159-1.386,0.474-1.79c0.316-0.404,0.761-0.607,1.347-0.607c0.578,0,1.022,0.189,1.342,0.559
			c0.316,0.368,0.47,0.917,0.47,1.641v16.95c0,0.732-0.168,1.282-0.505,1.647c-0.34,0.369-0.775,0.552-1.308,0.552
			c-0.529,0-0.962-0.188-1.305-0.571C846.625-82.35,846.452-82.899,846.452-83.6z M838.894-89.244c0,1.043,0.159,1.929,0.484,2.66
			c0.324,0.729,0.764,1.286,1.334,1.654c0.56,0.373,1.175,0.558,1.841,0.558c0.679,0,1.295-0.175,1.854-0.525
			c0.554-0.357,1.003-0.896,1.334-1.621c0.335-0.73,0.503-1.638,0.503-2.726c0-1.024-0.168-1.903-0.503-2.644
			c-0.332-0.734-0.78-1.299-1.353-1.685c-0.566-0.392-1.188-0.584-1.864-0.584c-0.703,0-1.333,0.196-1.888,0.597
			c-0.557,0.403-0.982,0.973-1.287,1.72C839.045-91.097,838.894-90.23,838.894-89.244z"/>
		<path fill="#E57373" d="M864.702-100.55v5.873c0.722-0.755,1.46-1.329,2.209-1.727c0.75-0.4,1.678-0.599,2.792-0.599
			c1.272,0,2.392,0.303,3.354,0.91c0.962,0.604,1.709,1.482,2.238,2.629c0.531,1.149,0.797,2.516,0.797,4.092
			c0,1.167-0.146,2.231-0.444,3.204c-0.295,0.973-0.725,1.814-1.286,2.524c-0.563,0.711-1.246,1.264-2.047,1.66
			c-0.804,0.388-1.69,0.583-2.658,0.583c-0.589,0-1.147-0.073-1.666-0.214c-0.52-0.14-0.965-0.325-1.33-0.554
			c-0.367-0.23-0.681-0.467-0.94-0.712c-0.257-0.242-0.594-0.608-1.018-1.102v0.382c0,0.727-0.173,1.271-0.523,1.646
			c-0.347,0.368-0.786,0.554-1.325,0.554c-0.541,0-0.976-0.186-1.302-0.554c-0.322-0.375-0.485-0.919-0.485-1.646v-16.782
			c0-0.775,0.158-1.368,0.474-1.771c0.316-0.395,0.752-0.597,1.313-0.597c0.592,0,1.05,0.19,1.369,0.575
			C864.542-101.796,864.702-101.253,864.702-100.55z M864.884-89.134c0,1.533,0.35,2.709,1.049,3.527
			c0.702,0.825,1.617,1.234,2.752,1.234c0.968,0,1.801-0.419,2.5-1.263c0.699-0.836,1.047-2.042,1.047-3.609
			c0-1.016-0.146-1.884-0.438-2.618c-0.288-0.735-0.702-1.295-1.238-1.698c-0.53-0.401-1.158-0.597-1.873-0.597
			c-0.736,0-1.383,0.196-1.957,0.597c-0.572,0.403-1.022,0.978-1.353,1.734C865.049-91.072,864.884-90.173,864.884-89.134z"/>
		<path fill="#E57373" d="M882.346-80.922l0.35-0.861l-4.73-11.911c-0.293-0.685-0.439-1.18-0.439-1.491
			c0-0.327,0.088-0.636,0.254-0.915c0.169-0.285,0.403-0.509,0.697-0.677c0.295-0.167,0.607-0.256,0.923-0.256
			c0.557,0,0.973,0.177,1.253,0.525c0.283,0.357,0.532,0.857,0.747,1.518l3.254,9.465l3.082-8.801
			c0.245-0.719,0.466-1.27,0.659-1.681c0.202-0.4,0.409-0.671,0.632-0.813c0.218-0.142,0.531-0.214,0.931-0.214
			c0.291,0,0.571,0.08,0.839,0.233c0.269,0.155,0.473,0.365,0.618,0.625c0.144,0.269,0.221,0.541,0.221,0.833
			c-0.039,0.178-0.098,0.429-0.182,0.759c-0.087,0.33-0.19,0.662-0.311,1.003l-5.011,13.118c-0.435,1.161-0.854,2.06-1.271,2.716
			c-0.411,0.659-0.959,1.162-1.639,1.516c-0.68,0.353-1.6,0.526-2.755,0.526c-1.125,0-1.972-0.119-2.533-0.362
			c-0.563-0.242-0.843-0.689-0.843-1.336c0-0.44,0.133-0.783,0.403-1.022c0.266-0.24,0.66-0.362,1.189-0.362
			c0.204,0,0.405,0.032,0.604,0.086c0.245,0.061,0.456,0.085,0.635,0.085c0.442,0,0.783-0.068,1.041-0.201
			c0.253-0.131,0.484-0.355,0.683-0.684C881.848-79.82,882.08-80.295,882.346-80.922z"/>
	</g>
	<g>
		<path fill="#E57373" d="M953.477-96.695h0.92v-1.15c0-1.204,0.148-2.161,0.459-2.868c0.297-0.707,0.818-1.228,1.544-1.547
			c0.728-0.326,1.725-0.489,2.993-0.489c2.243,0,3.366,0.549,3.366,1.649c0,0.36-0.119,0.664-0.354,0.918
			c-0.231,0.25-0.512,0.378-0.829,0.378c-0.159,0-0.409-0.027-0.778-0.084c-0.364-0.059-0.672-0.084-0.928-0.084
			c-0.695,0-1.14,0.203-1.331,0.611c-0.203,0.409-0.295,0.995-0.295,1.753v0.913h0.937c1.466,0,2.195,0.447,2.195,1.326
			c0,0.63-0.189,1.031-0.584,1.197c-0.389,0.169-0.922,0.253-1.611,0.253h-0.937v10.181c0,0.759-0.188,1.34-0.552,1.74
			c-0.359,0.4-0.829,0.599-1.401,0.599c-0.539,0-0.989-0.199-1.356-0.599c-0.363-0.4-0.537-0.98-0.537-1.74v-10.181h-1.06
			c-0.569,0-1.013-0.126-1.323-0.389c-0.312-0.254-0.467-0.59-0.467-1.005C951.547-96.229,952.19-96.695,953.477-96.695z"/>
		<path fill="#E57373" d="M967.204-86.949v3.211c0,0.782-0.179,1.359-0.545,1.755c-0.372,0.388-0.831,0.583-1.397,0.583
			c-0.547,0-1.005-0.199-1.365-0.592c-0.356-0.396-0.535-0.976-0.535-1.747v-10.703c0-1.726,0.628-2.591,1.871-2.591
			c0.641,0,1.103,0.203,1.385,0.605c0.279,0.404,0.431,1.001,0.461,1.793c0.468-0.792,0.935-1.389,1.416-1.793
			c0.486-0.403,1.136-0.605,1.938-0.605s1.591,0.203,2.349,0.605c0.764,0.404,1.143,0.942,1.143,1.608c0,0.47-0.16,0.854-0.49,1.163
			c-0.319,0.3-0.669,0.453-1.046,0.453c-0.138,0-0.481-0.084-1.025-0.26c-0.537-0.175-1.012-0.26-1.425-0.26
			c-0.563,0-1.024,0.151-1.378,0.447c-0.351,0.292-0.639,0.733-0.829,1.319c-0.201,0.58-0.336,1.274-0.417,2.074
			C967.243-89.083,967.204-88.1,967.204-86.949z"/>
		<path fill="#E57373" d="M986.031-88.273h-7.519c0.012,0.875,0.182,1.645,0.528,2.31c0.34,0.666,0.796,1.169,1.365,1.505
			c0.57,0.338,1.197,0.509,1.88,0.509c0.46,0,0.884-0.058,1.264-0.158c0.377-0.108,0.744-0.287,1.101-0.511
			c0.357-0.232,0.689-0.478,0.992-0.742c0.296-0.259,0.685-0.616,1.162-1.067c0.197-0.166,0.485-0.257,0.853-0.257
			c0.388,0,0.705,0.112,0.947,0.328c0.249,0.215,0.369,0.519,0.369,0.914c0,0.347-0.135,0.754-0.405,1.22
			c-0.277,0.463-0.683,0.912-1.229,1.337c-0.554,0.425-1.241,0.783-2.078,1.066c-0.826,0.278-1.784,0.421-2.862,0.421
			c-2.472,0-4.388-0.704-5.758-2.113c-1.369-1.408-2.059-3.316-2.059-5.731c0-1.134,0.171-2.193,0.509-3.164
			c0.339-0.969,0.831-1.804,1.475-2.498c0.651-0.689,1.451-1.227,2.399-1.602c0.947-0.366,1.998-0.551,3.155-0.551
			c1.496,0,2.784,0.314,3.859,0.949c1.077,0.637,1.887,1.453,2.417,2.458c0.531,1.004,0.802,2.029,0.802,3.07
			c0,0.965-0.273,1.594-0.83,1.884C987.813-88.415,987.035-88.273,986.031-88.273z M978.513-90.454h6.971
			c-0.093-1.316-0.443-2.296-1.063-2.948c-0.616-0.653-1.424-0.983-2.429-0.983c-0.955,0-1.746,0.332-2.359,0.995
			C979.021-92.729,978.645-91.748,978.513-90.454z"/>
		<path fill="#E57373" d="M1003.168-88.273h-7.518c0.005,0.875,0.185,1.645,0.528,2.31c0.341,0.666,0.794,1.169,1.362,1.505
			c0.57,0.338,1.197,0.509,1.882,0.509c0.456,0,0.88-0.058,1.256-0.158c0.381-0.108,0.753-0.287,1.108-0.511
			c0.359-0.232,0.687-0.478,0.984-0.742c0.302-0.259,0.693-0.616,1.172-1.067c0.195-0.166,0.476-0.257,0.843-0.257
			c0.396,0,0.71,0.112,0.956,0.328c0.246,0.215,0.369,0.519,0.369,0.914c0,0.347-0.138,0.754-0.409,1.22
			c-0.271,0.463-0.685,0.912-1.233,1.337c-0.548,0.425-1.236,0.783-2.066,1.066c-0.834,0.278-1.787,0.421-2.87,0.421
			c-2.464,0-4.384-0.704-5.758-2.113c-1.369-1.408-2.052-3.316-2.052-5.731c0-1.134,0.168-2.193,0.504-3.164
			c0.339-0.969,0.832-1.804,1.477-2.498c0.649-0.689,1.449-1.227,2.397-1.602c0.946-0.366,1.998-0.551,3.15-0.551
			c1.508,0,2.793,0.314,3.867,0.949c1.075,0.637,1.88,1.453,2.414,2.458c0.54,1.004,0.806,2.029,0.806,3.07
			c0,0.965-0.275,1.594-0.834,1.884C1004.954-88.415,1004.174-88.273,1003.168-88.273z M995.65-90.454h6.97
			c-0.098-1.316-0.453-2.296-1.063-2.948c-0.618-0.653-1.424-0.983-2.428-0.983c-0.961,0-1.746,0.332-2.364,0.995
			C996.152-92.729,995.776-91.748,995.65-90.454z"/>
		<path fill="#E57373" d="M1012.74-94.875v0.461c0.729-0.89,1.477-1.547,2.256-1.962c0.778-0.42,1.662-0.628,2.646-0.628
			c1.182,0,2.271,0.303,3.263,0.915c1,0.617,1.787,1.502,2.366,2.677c0.576,1.17,0.864,2.561,0.864,4.167
			c0,1.179-0.168,2.264-0.503,3.26c-0.33,0.987-0.789,1.822-1.375,2.491c-0.578,0.673-1.262,1.19-2.059,1.552
			c-0.792,0.359-1.646,0.542-2.557,0.542c-1.098,0-2.018-0.224-2.768-0.665c-0.744-0.438-1.456-1.083-2.134-1.942v5.773
			c0,1.692-0.613,2.532-1.841,2.532c-0.728,0-1.2-0.217-1.435-0.653c-0.236-0.437-0.354-1.068-0.354-1.906v-16.589
			c0-0.73,0.163-1.276,0.478-1.638c0.318-0.361,0.752-0.544,1.312-0.544c0.54,0,0.989,0.185,1.33,0.561
			C1012.572-96.1,1012.74-95.568,1012.74-94.875z M1020.275-89.288c0-1.012-0.154-1.884-0.468-2.608
			c-0.308-0.729-0.738-1.291-1.286-1.677c-0.549-0.392-1.152-0.584-1.821-0.584c-1.063,0-1.955,0.414-2.684,1.253
			c-0.726,0.835-1.092,2.064-1.092,3.689c0,1.53,0.36,2.717,1.085,3.569c0.725,0.852,1.619,1.274,2.69,1.274
			c0.635,0,1.232-0.185,1.771-0.558c0.549-0.368,0.983-0.925,1.31-1.664C1020.11-87.337,1020.275-88.233,1020.275-89.288z"/>
		<path fill="#E57373" d="M1029.164-98.817c-0.537,0-0.996-0.168-1.373-0.494c-0.379-0.327-0.572-0.793-0.572-1.393
			c0-0.545,0.193-0.997,0.58-1.347c0.389-0.353,0.845-0.526,1.365-0.526c0.495,0,0.932,0.155,1.317,0.474
			c0.389,0.322,0.576,0.788,0.576,1.398c0,0.587-0.182,1.053-0.557,1.386C1030.123-98.985,1029.679-98.817,1029.164-98.817z
			 M1031.058-94.851v11.112c0,0.771-0.179,1.351-0.551,1.747c-0.361,0.393-0.822,0.592-1.391,0.592c-0.564,0-1.018-0.204-1.37-0.607
			c-0.355-0.404-0.527-0.98-0.527-1.731v-10.997c0-0.762,0.172-1.335,0.527-1.719c0.353-0.384,0.806-0.579,1.37-0.579
			c0.568,0,1.029,0.194,1.391,0.579C1030.879-96.07,1031.058-95.53,1031.058-94.851z"/>
		<path fill="#E57373" d="M1044.604-83.165l-3.39-5.574l-2.084,1.972v3.059c0,0.741-0.196,1.311-0.585,1.71
			c-0.392,0.4-0.84,0.599-1.343,0.599c-0.593,0-1.056-0.199-1.398-0.592c-0.335-0.396-0.503-0.976-0.503-1.747v-16.391
			c0-0.853,0.156-1.507,0.492-1.949c0.328-0.448,0.799-0.671,1.409-0.671c0.594,0,1.058,0.203,1.404,0.607
			c0.349,0.404,0.523,1.001,0.523,1.79v9.319l4.321-4.529c0.537-0.569,0.939-0.948,1.223-1.161c0.285-0.206,0.623-0.309,1.031-0.309
			c0.475,0,0.877,0.152,1.194,0.461c0.319,0.305,0.484,0.687,0.484,1.146c0,0.566-0.526,1.317-1.566,2.253l-2.042,1.874l3.944,6.195
			c0.292,0.455,0.497,0.812,0.623,1.046c0.126,0.238,0.19,0.471,0.19,0.683c0,0.615-0.168,1.092-0.503,1.446
			c-0.33,0.351-0.773,0.529-1.31,0.529c-0.47,0-0.833-0.125-1.085-0.383C1045.378-82.035,1045.037-82.497,1044.604-83.165z"/>
		<path fill="#E57373" d="M1054.113-81.4c-0.587,0-1.088-0.188-1.508-0.565c-0.419-0.376-0.636-0.902-0.636-1.578
			c0-0.575,0.202-1.066,0.603-1.479c0.408-0.413,0.909-0.617,1.499-0.617c0.589,0,1.088,0.201,1.512,0.611
			c0.415,0.41,0.625,0.902,0.625,1.485c0,0.67-0.21,1.193-0.625,1.572C1055.159-81.587,1054.673-81.4,1054.113-81.4z"/>
		<path fill="#E57373" d="M1074.375-86.163c0,0.479-0.148,0.993-0.434,1.538c-0.285,0.543-0.722,1.063-1.307,1.557
			c-0.59,0.492-1.331,0.888-2.215,1.188c-0.899,0.302-1.899,0.446-3.023,0.446c-2.366,0-4.223-0.685-5.558-2.072
			c-1.329-1.386-1.994-3.242-1.994-5.569c0-1.577,0.296-2.969,0.911-4.182c0.607-1.212,1.494-2.15,2.649-2.807
			c1.149-0.663,2.532-0.994,4.14-0.994c0.991,0,1.901,0.146,2.736,0.434c0.83,0.293,1.537,0.667,2.107,1.127
			c0.578,0.462,1.024,0.951,1.332,1.473c0.299,0.521,0.456,1.008,0.456,1.461c0,0.456-0.177,0.848-0.521,1.165
			c-0.339,0.32-0.755,0.477-1.242,0.477c-0.318,0-0.59-0.081-0.797-0.245c-0.207-0.166-0.447-0.429-0.711-0.791
			c-0.464-0.716-0.958-1.255-1.468-1.613c-0.512-0.353-1.164-0.533-1.95-0.533c-1.135,0-2.056,0.446-2.749,1.33
			c-0.69,0.885-1.043,2.099-1.043,3.639c0,0.725,0.089,1.392,0.269,1.993c0.182,0.605,0.44,1.123,0.774,1.551
			s0.747,0.75,1.226,0.972c0.48,0.221,1.007,0.329,1.58,0.329c0.766,0,1.425-0.176,1.976-0.533c0.55-0.358,1.031-0.899,1.459-1.633
			c0.236-0.428,0.491-0.772,0.761-1.011c0.274-0.245,0.604-0.369,0.996-0.369c0.471,0,0.864,0.179,1.172,0.534
			C1074.217-86.944,1074.375-86.563,1074.375-86.163z"/>
		<path fill="#E57373" d="M1092.112-89.215c0,1.143-0.181,2.2-0.536,3.166c-0.357,0.971-0.874,1.799-1.548,2.489
			c-0.674,0.695-1.485,1.231-2.424,1.606c-0.936,0.368-1.994,0.554-3.166,0.554c-1.163,0-2.21-0.188-3.141-0.565
			c-0.926-0.376-1.731-0.909-2.414-1.61c-0.679-0.702-1.194-1.529-1.547-2.478c-0.353-0.954-0.525-2.013-0.525-3.162
			c0-1.164,0.173-2.229,0.531-3.203c0.355-0.962,0.867-1.789,1.532-2.473c0.668-0.682,1.472-1.209,2.423-1.582
			c0.951-0.376,1.994-0.561,3.141-0.561c1.167,0,2.221,0.19,3.166,0.566c0.948,0.373,1.76,0.91,2.437,1.606
			c0.68,0.689,1.193,1.521,1.544,2.479C1091.932-91.423,1092.112-90.37,1092.112-89.215z M1088.258-89.215
			c0-1.568-0.351-2.79-1.037-3.661c-0.689-0.874-1.615-1.308-2.782-1.308c-0.751,0-1.414,0.188-1.985,0.582
			c-0.568,0.39-1.016,0.966-1.323,1.726c-0.313,0.755-0.467,1.646-0.467,2.661c0,1.003,0.153,1.88,0.457,2.631
			c0.306,0.752,0.745,1.328,1.312,1.726c0.566,0.4,1.232,0.597,2.007,0.597c1.167,0,2.093-0.438,2.782-1.316
			C1087.907-86.454,1088.258-87.668,1088.258-89.215z"/>
		<path fill="#E57373" d="M1107.928-88.933v5.107c0,0.81-0.188,1.414-0.551,1.818c-0.366,0.403-0.854,0.607-1.451,0.607
			c-0.579,0-1.052-0.204-1.416-0.607c-0.357-0.404-0.542-1.008-0.542-1.818v-6.125c0-0.965-0.032-1.713-0.1-2.253
			c-0.061-0.533-0.242-0.969-0.53-1.313c-0.293-0.343-0.755-0.512-1.383-0.512c-1.258,0-2.088,0.431-2.482,1.292
			c-0.4,0.863-0.604,2.104-0.604,3.717v5.194c0,0.802-0.179,1.404-0.54,1.809c-0.363,0.413-0.836,0.617-1.432,0.617
			c-0.573,0-1.058-0.204-1.43-0.617c-0.369-0.404-0.552-1.007-0.552-1.809v-10.994c0-0.719,0.163-1.274,0.499-1.647
			c0.332-0.376,0.772-0.566,1.317-0.566c0.528,0,0.965,0.177,1.317,0.525c0.35,0.357,0.526,0.841,0.526,1.463v0.367
			c0.665-0.794,1.381-1.386,2.138-1.759c0.766-0.375,1.608-0.566,2.538-0.566c0.966,0,1.798,0.191,2.487,0.576
			c0.699,0.387,1.272,0.968,1.72,1.75c0.651-0.792,1.343-1.372,2.084-1.754c0.741-0.38,1.566-0.572,2.47-0.572
			c1.046,0,1.956,0.204,2.71,0.618c0.764,0.418,1.329,1.002,1.706,1.774c0.33,0.695,0.492,1.789,0.492,3.281v7.504
			c0,0.81-0.184,1.414-0.551,1.818c-0.363,0.403-0.845,0.607-1.445,0.607c-0.579,0-1.06-0.204-1.433-0.617
			c-0.37-0.404-0.554-1.007-0.554-1.809v-6.459c0-0.825-0.036-1.49-0.104-1.989c-0.078-0.495-0.266-0.913-0.573-1.251
			c-0.305-0.337-0.78-0.503-1.408-0.503c-0.505,0-0.984,0.148-1.445,0.45c-0.45,0.302-0.807,0.702-1.063,1.207
			C1108.065-91.723,1107.928-90.577,1107.928-88.933z"/>
	</g>
	<g>
		<path fill="#E57373" d="M923.193-106.944c-0.081-0.243-0.171-0.489-0.25-0.737c1.296-0.116,2.164-1.663,1.531-2.81
			c-0.576-1.294-2.567-1.455-3.336-0.267c-0.824,1.047-0.181,2.706,1.077,3.039c0.076,0.268,0.152,0.533,0.232,0.8
			c-1.934,0.12-3.91,0.554-5.529,1.657c0.162,0.473,0.333,0.944,0.495,1.414c3.275-1.435,6.956-1.12,10.41-0.777
			c0.113-0.455,0.227-0.912,0.341-1.368C926.603-106.696,924.888-106.956,923.193-106.944z"/>
		<path fill="#E57373" d="M942.674-101.652c-0.52,0.263-0.617,0.882-0.59,1.411c-0.573,0.557-0.305,1.401-0.369,2.109
			c-0.127,0.393-0.599,0.435-0.925,0.587c-0.457-0.689-0.938-1.356-1.541-1.92l0.001-0.032c-0.66-0.62-1.374-1.175-2.125-1.667
			c-0.611,0.646-1.243,1.282-1.829,1.959c1.154,1.272,2.221,2.626,3.165,4.066c0.643,1.09,1.172,2.249,1.624,3.434
			c0.975-0.494,1.937-1.018,2.91-1.527c-0.512-1.191-1.102-2.35-1.726-3.489c0.429-0.228,1.01-0.457,1.078-1.018
			c0.05-0.625-0.092-1.296,0.29-1.843c0.747,0.494,1.891-0.064,1.901-0.98C944.641-101.503,943.451-102.19,942.674-101.652z"/>
		<path fill="#E57373" d="M937.402-94.586c-1.267-2.104-2.641-4.193-4.509-5.821c-2.157-1.896-4.958-3.179-7.863-3.165
			c-3.675-0.046-7.395,0.554-10.774,2.026c-3.188,1.4-5.96,3.893-7.365,7.123c-1.352,2.899-1.337,6.24-0.726,9.327
			c3.38,0.846,6.812,1.598,10.303,1.763c3.438,0.108,6.897,0.19,10.315-0.292c4.689-0.615,9.289-2.107,13.384-4.5
			C940.168-88.125,939.606-91.215,937.402-94.586z M920.793-90.43c-0.632,0.926-1.547,1.643-2.599,2.046
			c-1.975,0.736-4.38,0.235-5.799-1.342c-0.992-1.087-1.582-2.56-1.474-4.042c0.074-1.854,1.22-3.576,2.843-4.447
			c1.242-0.674,2.737-0.789,4.083-0.411c0.571,0.143,1.092,0.41,1.578,0.731c0.999,0.71,1.754,1.757,2.084,2.938
			C921.971-93.445,921.677-91.741,920.793-90.43z M935.033-93.769c-0.231,1.582-1.748,2.924-3.365,2.821
			c-0.94,0.082-1.843-0.365-2.477-1.026c-0.457-0.565-0.832-1.224-0.896-1.966c-0.215-1.608,0.912-3.263,2.491-3.651
			c0.688-0.193,1.413-0.085,2.099,0.074C934.367-96.992,935.341-95.321,935.033-93.769z"/>
		<path fill="#E57373" d="M906.937-99.288c-1.376,0.826-2.5,2-3.444,3.282c-0.276-0.505-0.359-1.115-0.718-1.572
			c-0.201-0.271-0.57-0.161-0.854-0.166c-0.365,0.04-0.72-0.061-1.061-0.165c0.397-0.568,0.296-1.434-0.325-1.799
			c-0.654-0.474-1.672-0.065-1.846,0.718c-0.277,0.858,0.635,1.719,1.477,1.492c0.445,0.656,1.253,0.551,1.938,0.579
			c0.31,0.534,0.542,1.121,0.938,1.608c-0.734,1.452-1.148,3.077-1.182,4.706c0.943,0.393,1.888,0.796,2.833,1.19
			c0.047-1.026,0.168-2.047,0.327-3.061c0.316-2.201,1.59-4.119,3.099-5.702C907.748-98.568,907.332-98.914,906.937-99.288z"/>
		<path fill="#E57373" d="M929.028-82.66c-3.488,0.761-7.076,0.98-10.64,0.825c-2.406-0.122-4.814-0.345-7.163-0.866
			c-1.668-0.34-3.301-0.819-4.937-1.288c0.257,2.098,1.105,4.102,2.316,5.826c1.428,2.004,3.333,3.849,5.711,4.587
			c1.852,0.498,4.062,1.136,7.868,1.071c3.148-0.059,6.243-0.459,9.006-1.628c1.779-0.77,3.455-1.813,4.884-3.12
			c1.242-1.168,2.215-2.628,2.881-4.194c0.652-1.478,1.24-4.13,1.173-5.49C936.725-85.001,932.907-83.312,929.028-82.66z"/>
	</g>
</g>
</svg>
