<?xml version="1.0" encoding="utf-8"?>
<!-- Generator: Adobe Illustrator 16.0.0, SVG Export Plug-In . SVG Version: 6.00 Build 0)  -->
<!DOCTYPE svg PUBLIC "-//W3C//DTD SVG 1.1//EN" "http://www.w3.org/Graphics/SVG/1.1/DTD/svg11.dtd">
<svg version="1.1" id="objects" xmlns="http://www.w3.org/2000/svg" xmlns:xlink="http://www.w3.org/1999/xlink" x="0px" y="0px"
	 width="416px" height="254px" viewBox="0 0 416 254" enable-background="new 0 0 416 254" xml:space="preserve">
<ellipse fill="#B3B3B3" cx="214" cy="224.831" rx="180" ry="4.855"/>
<g>
	<g>
		<rect x="339" y="180" fill="#4D4D4D" width="28" height="14"/>
		<rect x="342" y="180" fill="#E6E6E6" width="3" height="11"/>
		<rect x="361" y="180" fill="#E6E6E6" width="3" height="11"/>
		<path fill="#333333" d="M371,195.68c0,2.386-1.935,4.32-4.32,4.32H340.32c-2.386,0-4.32-1.934-4.32-4.32v-0.36
			c0-2.386,1.935-4.32,4.32-4.32h26.359c2.386,0,4.32,1.934,4.32,4.32V195.68z"/>
	</g>
	<rect x="289" y="174" fill="#333333" width="87" height="8"/>
	
		<polyline fill="none" stroke="#333333" stroke-width="3" stroke-linecap="round" stroke-linejoin="round" stroke-miterlimit="10" points="
		134.98,102.027 146.5,104.735 146.5,167 	"/>
	<path fill="#333333" d="M306,198H87.28c-13.52,0-23.04-4.98-23.04-18.5l0,0c0-13.52,9.52-18.5,23.04-18.5h59.76l9.28,7.147
		c3.923,0,149.68-0.129,149.68-0.129V198z"/>
	<path fill="#CCCCCC" d="M132.91,81h-0.54c-0.142,0-0.274,0.034-0.415,0.042L131.92,81H62.8L49.93,102.407l-12.088,36.967
		L37.721,195h44.28c0-23,21.119-24,21.119-24H141v-68.155v-11.07v-2.43C141,85.12,137.134,81,132.91,81z"/>
	<path fill="#333333" d="M127,88v34.015c0,0-6.899,10.833-69.779,18.752c0,0,2.699-38.768,23.338-52.768H127z"/>
	<rect x="115" y="145" fill="#4D4D4D" width="11" height="18"/>
	<rect x="115" y="157" fill="#666666" width="11" height="6"/>
	<path fill="#FFFFFF" d="M69,188.631c0,1.86-1.508,3.369-3.369,3.369H52.369c-1.86,0-3.369-1.508-3.369-3.369v-0.263
		c0-1.86,1.508-3.369,3.369-3.369h13.263c1.86,0,3.369,1.508,3.369,3.369V188.631z"/>
	<path fill="#F7931E" d="M69,189.035c0,1.955-1.208,2.965-3.98,2.965H57v-7h8.02c2.105-0.208,3.98,0.962,3.98,2.917V189.035z"/>
	<path fill="#333333" d="M62.8,81.695c0,0-25.08,19.56-24.958,60.96c0,0,3.972,0.268,4.199-1.681
		C45.88,108.155,59.74,91.775,62.8,81.695z"/>
	<path fill="#999999" d="M41,187.075c0,1.063-0.862,1.925-1.926,1.925h-0.148c-1.063,0-1.926-0.862-1.926-1.925v-28.149
		c0-1.063,0.862-1.925,1.926-1.925h0.148c1.063,0,1.926,0.862,1.926,1.925V187.075z"/>
	<path fill="#666666" d="M86,198.631c0,1.861-1.508,3.369-3.369,3.369H37.369c-1.86,0-3.369-1.508-3.369-3.369v-0.262
		c0-1.861,1.508-3.369,3.369-3.369h45.263c1.86,0,3.369,1.508,3.369,3.369V198.631z"/>
	<path fill="#E6E6E6" d="M62.62,81c0,0,7.74-38.263,77.94-38.083c0,0,1.979,27.862-1.08,33.082c0,0-2.34,5.001-5.22,5.001
		S62.62,81,62.62,81z"/>
	<g>
		<circle fill="#333333" cx="116.98" cy="200.315" r="24.66"/>
		<g>
			<circle fill="#CCCCCC" cx="116.98" cy="200.315" r="16.02"/>
			<circle fill="#E6E6E6" stroke="#333333" stroke-miterlimit="10" cx="116.98" cy="200.315" r="4.68"/>
			<rect x="113" y="187" fill="#333333" width="8" height="2"/>
			<rect x="113" y="212" fill="#333333" width="8" height="2"/>
			<rect x="127" y="197" fill="#333333" width="2" height="7"/>
			<rect x="104" y="197" fill="#333333" width="2" height="7"/>
		</g>
	</g>
	<rect x="178" y="188" fill="#808080" width="109" height="7"/>
	<g>
		<circle fill="#333333" cx="305.62" cy="200.315" r="24.66"/>
		<g>
			<circle fill="#CCCCCC" cx="305.621" cy="200.315" r="16.019"/>
			<circle fill="#E6E6E6" stroke="#333333" stroke-miterlimit="10" cx="305.62" cy="200.315" r="4.68"/>
			<rect x="302" y="187" fill="#333333" width="7" height="2"/>
			<rect x="302" y="212" fill="#333333" width="7" height="2"/>
			<rect x="316" y="197" fill="#333333" width="2" height="7"/>
			<rect x="293" y="197" fill="#333333" width="2" height="7"/>
		</g>
	</g>
	<path fill="none" stroke="#999999" stroke-linecap="round" stroke-linejoin="round" stroke-miterlimit="10" d="M69.39,88.715
		c0,0-18.89,27.781-17.89,55.393v31.187l29.893-0.042c0,0,5.397-11.238,22.797-11.238"/>
	<path fill="#666666" d="M70,147.2c0,0.994-0.806,1.8-1.801,1.8h-9.398c-0.995,0-1.801-0.806-1.801-1.8V146.8
		c0-0.994,0.806-1.8,1.801-1.8h9.398c0.995,0,1.801,0.806,1.801,1.8V147.2z"/>
	<rect x="154" y="185" fill="#666666" width="37" height="16"/>
	<polygon fill="#D9D9D9" points="393,189 376.721,189 369.52,168 393,168 	"/>
	<g>
		<path fill="#4D4D4D" d="M93.965,88l-7.506,48.224c10.341-2.021,18.132-4.302,23.98-6.214L117.005,88H93.965z"/>
	</g>
	<g>
		<rect x="156" y="26" fill="#D9D9D9" width="237" height="149"/>
		<g>
			<path fill="#E6E6E6" d="M229,154.8c0,3.976-3.224,7.2-7.2,7.2h-46.6c-3.977,0-7.2-3.224-7.2-7.2V42.2c0-3.976,3.224-7.2,7.2-7.2
				h46.6c3.977,0,7.2,3.224,7.2,7.2V154.8z"/>
			<path fill="#E6E6E6" d="M302,154.8c0,3.976-3.224,7.2-7.201,7.2h-46.598c-3.978,0-7.201-3.224-7.201-7.2V42.2
				c0-3.976,3.224-7.2,7.201-7.2h46.598c3.978,0,7.201,3.224,7.201,7.2V154.8z"/>
			<path fill="#E6E6E6" d="M377,154.8c0,3.976-3.224,7.2-7.199,7.2h-46.602c-3.976,0-7.199-3.224-7.199-7.2V42.2
				c0-3.976,3.224-7.2,7.199-7.2h46.602c3.976,0,7.199,3.224,7.199,7.2V154.8z"/>
		</g>
		<rect x="164" y="166" fill="#E6E6E6" width="217" height="5"/>
		<path fill="#F7931E" d="M169,31.08c0,1.061-0.86,1.92-1.921,1.92h-6.158C159.86,33,159,32.141,159,31.08v-0.16
			c0-1.061,0.86-1.92,1.921-1.92h6.158c1.061,0,1.921,0.859,1.921,1.92V31.08z"/>
		<path fill="#F7931E" d="M389,31.08c0,1.061-0.859,1.92-1.92,1.92h-6.16c-1.061,0-1.92-0.859-1.92-1.92v-0.16
			c0-1.061,0.859-1.92,1.92-1.92h6.16c1.061,0,1.92,0.859,1.92,1.92V31.08z"/>
	</g>
	<rect x="229" y="183" fill="#B3B3B3" width="30" height="9"/>
	<rect x="229" y="192" fill="#333333" width="30" height="9"/>
	<path fill="#C1272D" d="M391,182.075c0,1.063-0.861,1.925-1.925,1.925h-9.15c-1.063,0-1.925-0.862-1.925-1.925v-0.15
		c0-1.063,0.861-1.925,1.925-1.925h9.15c1.063,0,1.925,0.862,1.925,1.925V182.075z"/>
	<path fill="#333333" d="M394,198.56c0,0.795-0.645,1.44-1.44,1.44H377.44c-0.796,0-1.44-0.645-1.44-1.44V188.44
		c0-0.795,0.645-1.44,1.44-1.44h15.119c0.796,0,1.44,0.645,1.44,1.44V198.56z"/>
</g>
</svg>
